<svg width="118" height="29" viewBox="0 0 118 29" fill="none" xmlns="http://www.w3.org/2000/svg">
<path fill-rule="evenodd" clip-rule="evenodd" d="M76.621 0.644266C76.621 0.723612 76.5232 0.788532 76.4037 0.788532C76.0633 0.788532 75.5338 1.41897 75.3523 2.04062C75.2073 2.53718 75.2244 2.68822 75.4923 3.27308C75.9695 4.31424 77.0639 4.68962 78.0694 4.15656C78.6226 3.86327 78.8607 3.55771 78.8665 3.13285C78.869 2.95439 78.9343 2.80825 79.0116 2.80825C79.0889 2.80825 79.1522 2.67841 79.1522 2.51972C79.1522 2.36103 79.0889 2.23119 79.0116 2.23119C78.9343 2.23119 78.871 2.06601 78.871 1.86403C78.871 1.45908 78.305 0.788532 77.9632 0.788532C77.8437 0.788532 77.746 0.723612 77.746 0.644266C77.746 0.56492 77.4929 0.5 77.1835 0.5C76.8741 0.5 76.621 0.56492 76.621 0.644266ZM87.871 1.50986C87.871 1.58921 87.6515 1.65413 87.383 1.65413C86.6544 1.65413 85.1991 2.61119 85.1991 3.09029C85.1991 3.17325 85.1358 3.24105 85.0585 3.24105C84.9811 3.24105 84.9179 3.33843 84.9179 3.45745C84.9179 3.57647 84.8546 3.67385 84.7772 3.67385C84.6999 3.67385 84.6366 3.83615 84.6366 4.03451C84.6366 4.23288 84.5733 4.39518 84.496 4.39518C84.4186 4.39518 84.3554 4.65486 84.3554 4.97224C84.3554 5.28963 84.2921 5.5493 84.2147 5.5493C84.1374 5.5493 84.0741 5.8739 84.0741 6.27063V6.99196H83.1751C82.1257 6.99196 82.1054 7.01822 82.1054 8.36768V9.28709L83.0546 9.32965L84.0038 9.37235L84.0405 15.5397L84.0771 21.7071H85.6225H87.1679V15.5036V9.30022H88.2929H89.4179V8.37432C89.4179 6.9924 89.4174 6.99196 88.1925 6.99196C87.2415 6.99196 87.1482 6.96715 87.2431 6.7395C87.3012 6.60057 87.3905 6.18653 87.4417 5.81937C87.5357 5.14536 87.8751 4.47034 88.2823 4.14733C88.5496 3.93511 89.8216 3.90756 90.3228 4.10304C90.6089 4.2147 90.6835 4.19984 90.6835 4.03091C90.6835 3.91391 90.7468 3.81811 90.8241 3.81811C90.9014 3.81811 90.9647 3.68828 90.9647 3.52958C90.9647 3.37089 91.028 3.24105 91.1054 3.24105C91.1827 3.24105 91.246 3.14367 91.246 3.02465C91.246 2.90563 91.3135 2.80825 91.3959 2.80825C91.4784 2.80825 91.5258 2.6298 91.5014 2.41152C91.4665 2.09991 91.3739 2.00498 91.0702 1.9692C90.8574 1.9441 90.6835 1.86288 90.6835 1.78887C90.6835 1.71472 90.3671 1.65413 89.9804 1.65413C89.5936 1.65413 89.2772 1.58921 89.2772 1.50986C89.2772 1.43051 88.9608 1.3656 88.5741 1.3656C88.1874 1.3656 87.871 1.43051 87.871 1.50986ZM68.2001 11.2117C68.2092 16.4685 68.2572 20.9641 68.3067 21.2021L68.3967 21.6349L69.9073 21.6759L71.4179 21.7169V11.6855V1.65413H69.8007H68.1835L68.2001 11.2117ZM0.0418068 2.85211C0.00243182 2.95728 -0.0116306 3.75319 0.0104475 4.62081L0.0506667 6.1985L6.16785 6.23861C9.53231 6.26054 12.4295 6.24265 12.6059 6.19865C12.9201 6.12016 12.9259 6.08395 12.8872 4.42735L12.8475 2.73612L6.48046 2.69861C1.2997 2.66803 0.0998849 2.69659 0.0418068 2.85211ZM15.642 7.1723C15.5747 7.27155 15.5364 10.5825 15.5571 14.5299L15.5949 21.7071H17.1391H18.6835V14.9243C18.6835 9.92142 18.6376 7.99072 18.5087 7.56672L18.3337 6.99196H17.0493C16.1809 6.99196 15.725 7.05039 15.642 7.1723ZM21.2147 7.13623C21.2147 7.21558 21.0249 7.28049 20.7929 7.28049C20.5608 7.28049 20.371 7.34541 20.371 7.42476C20.371 7.50411 20.2716 7.56903 20.1501 7.56903C19.678 7.56903 19.5272 7.9483 19.5272 9.1359C19.5272 10.1776 19.5558 10.3 19.8189 10.3855C19.9792 10.4378 20.2977 10.401 20.5265 10.3037C20.8019 10.1867 21.3923 10.1511 22.2739 10.1984L23.6054 10.2698V8.63097V6.99196H22.41C21.7069 6.99196 21.2147 7.0514 21.2147 7.13623ZM31.0585 7.13623C31.0585 7.21558 30.9319 7.28049 30.7772 7.28049C30.6225 7.28049 30.496 7.34541 30.496 7.42476C30.496 7.50411 30.3694 7.56903 30.2147 7.56903C30.06 7.56903 29.9335 7.63395 29.9335 7.71329C29.9335 7.79264 29.8374 7.85756 29.7199 7.85756C29.6024 7.85756 29.1052 8.26915 28.6148 8.7722C27.129 10.2965 26.4225 12.1203 26.4195 14.4393C26.4171 16.2848 27.091 18.3336 28.0321 19.3428C28.1885 19.5105 28.4094 19.7863 28.5232 19.956C28.6369 20.1256 28.7798 20.2644 28.8408 20.2644C28.9017 20.2644 29.1503 20.4592 29.3931 20.6972C29.6359 20.9353 29.9201 21.13 30.0246 21.13C30.1292 21.13 30.2147 21.1949 30.2147 21.2743C30.2147 21.3536 30.4046 21.4185 30.6366 21.4185C30.8686 21.4185 31.0585 21.4835 31.0585 21.5628C31.0585 21.6422 31.2673 21.7071 31.5225 21.7071C31.7778 21.7071 32.0558 21.7781 32.1404 21.8649C32.3577 22.0878 35.0597 21.8202 35.3405 21.5481C35.4139 21.4768 35.588 21.4185 35.7272 21.4185C35.8664 21.4185 35.9804 21.3536 35.9804 21.2743C35.9804 21.1949 36.077 21.13 36.1949 21.13C36.3131 21.13 36.6928 20.8396 37.0387 20.4846C37.7293 19.7761 37.8384 19.3001 37.3866 18.966C37.2319 18.8516 37.1054 18.6704 37.1054 18.5632C37.1054 18.3121 36.7584 17.9562 36.5136 17.9562C36.4091 17.9562 36.2325 18.086 36.121 18.2447C36.0095 18.4034 35.8057 18.5332 35.668 18.5332C35.5305 18.5332 35.4179 18.5982 35.4179 18.6775C35.4179 18.7568 35.2597 18.8218 35.0663 18.8218C34.8729 18.8218 34.7147 18.8867 34.7147 18.966C34.7147 19.0526 34.1522 19.1103 33.3085 19.1103C32.4647 19.1103 31.9022 19.0526 31.9022 18.966C31.9022 18.8867 31.7757 18.8218 31.621 18.8218C31.4663 18.8218 31.3397 18.7568 31.3397 18.6775C31.3397 18.5982 31.2607 18.5331 31.1639 18.5331C31.0673 18.5329 30.83 18.3869 30.6366 18.2085C29.3589 17.0294 29.0429 13.8959 29.982 11.7174C30.3797 10.7947 31.2291 9.87728 31.6854 9.87728C31.8046 9.87728 31.9022 9.81236 31.9022 9.73301C31.9022 9.65367 32.0288 9.58875 32.1835 9.58875C32.4439 9.58875 32.4647 9.49252 32.4647 8.29036V6.99196H31.7616C31.3749 6.99196 31.0585 7.05688 31.0585 7.13623ZM33.3085 8.22269C33.3085 9.2679 33.3456 9.46569 33.5546 9.5345C34.6461 9.89373 35.5503 10.5969 35.8681 11.3335C35.9676 11.564 36.0968 11.7527 36.1553 11.7527C36.2138 11.7527 36.2616 12.0773 36.2616 12.4741V13.1954H33.3788H30.496V14.3495V15.5036H34.9257H39.3554V14.0352C39.3554 12.6837 39.2357 11.9347 38.9162 11.2859C38.8484 11.1481 38.7929 10.9371 38.7929 10.817C38.7929 10.6969 38.7296 10.5986 38.6522 10.5986C38.5749 10.5986 38.5116 10.5012 38.5116 10.3822C38.5116 10.2632 38.4483 10.1658 38.371 10.1658C38.2936 10.1658 38.2304 10.0684 38.2304 9.94941C38.2304 9.83039 38.1671 9.73301 38.0897 9.73301C38.0124 9.73301 37.9491 9.66391 37.9491 9.57937C37.9491 9.35994 36.5985 8.03933 36.2622 7.92984C36.1072 7.87934 35.9804 7.77763 35.9804 7.70363C35.9804 7.62962 35.8538 7.56903 35.6991 7.56903C35.5444 7.56903 35.4179 7.50411 35.4179 7.42476C35.4179 7.34541 35.228 7.28049 34.996 7.28049C34.7639 7.28049 34.5741 7.21558 34.5741 7.13623C34.5741 7.05688 34.2893 6.99196 33.9413 6.99196H33.3085V8.22269ZM43.5273 7.08819C43.4757 7.14099 43.4335 10.4519 43.4335 14.4457V21.7071H45.058H46.6825L46.64 14.5916C46.6016 8.1585 46.5749 7.45275 46.3614 7.23404C46.1759 7.04375 45.8577 6.99196 44.8732 6.99196C44.1844 6.99196 43.5787 7.03524 43.5273 7.08819ZM49.1991 7.13623C49.1991 7.21558 49.0093 7.28049 48.7772 7.28049C48.5452 7.28049 48.3554 7.34541 48.3554 7.42476C48.3554 7.50411 48.2559 7.56903 48.1344 7.56903C47.6857 7.56903 47.5116 7.95407 47.5116 8.94604V9.91089L47.8983 9.80298C48.1109 9.74369 48.8437 9.66651 49.5265 9.63145L50.7679 9.56769L51.2432 10.0697C51.5045 10.3459 51.7571 10.7563 51.8045 10.9819C51.8517 11.2076 51.9493 11.5412 52.0213 11.7234C52.0933 11.9057 52.1522 14.2266 52.1522 16.881V21.7071H53.6173C54.423 21.7071 55.1824 21.6677 55.3048 21.6195C55.5008 21.5423 55.5272 21.0188 55.5272 17.2194C55.5272 14.4406 55.4772 12.9069 55.3866 12.9069C55.3039 12.9069 55.246 12.4019 55.246 11.6806C55.246 10.9593 55.188 10.4543 55.1054 10.4543C55.028 10.4543 54.9647 10.2596 54.9647 10.0215C54.9647 9.78351 54.9014 9.58875 54.8241 9.58875C54.7468 9.58875 54.6835 9.49916 54.6835 9.38981C54.6835 9.08295 53.1621 7.56903 52.8538 7.56903C52.7773 7.56903 52.7147 7.50411 52.7147 7.42476C52.7147 7.34541 52.5565 7.28049 52.3632 7.28049C52.1698 7.28049 52.0116 7.21558 52.0116 7.13623C52.0116 7.04967 51.4491 6.99196 50.6054 6.99196C49.7616 6.99196 49.1991 7.04967 49.1991 7.13623ZM62.9804 7.13623C62.9804 7.21558 62.7905 7.28049 62.5585 7.28049C62.3264 7.28049 62.1366 7.34541 62.1366 7.42476C62.1366 7.50411 62.01 7.56903 61.8554 7.56903C61.7007 7.56903 61.5741 7.62962 61.5741 7.70363C61.5741 7.77763 61.4445 7.88035 61.2858 7.932C61.0148 8.02015 60.3608 8.63414 59.8866 9.2454C59.6917 9.49656 59.1613 10.5669 58.8939 11.2478C58.5464 12.1335 58.4555 15.1336 58.7366 16.4414C58.8218 16.8381 58.9329 17.3745 58.9834 17.6333C59.034 17.8921 59.1313 18.1395 59.1996 18.1828C59.2681 18.2262 59.3241 18.3877 59.3241 18.5417C59.3241 18.6958 59.3874 18.8218 59.4647 18.8218C59.5421 18.8218 59.6054 18.9373 59.6054 19.0784C59.6054 19.2196 59.7319 19.4287 59.8866 19.5431C60.0413 19.6575 60.168 19.8179 60.168 19.8996C60.1683 20.1372 60.8143 20.8415 61.0321 20.8415C61.1414 20.8415 61.322 20.9713 61.4335 21.13C61.545 21.2887 61.7451 21.4185 61.8781 21.4185C62.0112 21.4185 62.1547 21.4763 62.1974 21.5469C62.3747 21.8412 64.5642 22.0705 65.2529 21.8668C65.5499 21.7789 66.0619 21.6279 66.3905 21.5311C67.2818 21.2687 67.3397 21.1613 67.3397 19.7697C67.3397 18.6805 67.3099 18.5332 67.0896 18.5332C66.9519 18.5332 66.7481 18.6631 66.6366 18.8218C66.5175 18.9911 66.2725 19.1103 66.043 19.1103C65.8281 19.1103 65.6522 19.1752 65.6522 19.2546C65.6522 19.3339 65.4307 19.3988 65.16 19.3988C64.8893 19.3988 64.6679 19.3339 64.6679 19.2546C64.6679 19.1752 64.5097 19.1103 64.3163 19.1103C64.1229 19.1103 63.9647 19.0454 63.9647 18.966C63.9647 18.8867 63.8993 18.8218 63.8195 18.8218C63.5928 18.8218 62.6991 17.8474 62.6991 17.6003C62.6991 17.4786 62.6358 17.3791 62.5585 17.3791C62.4811 17.3791 62.4179 17.2532 62.4179 17.0991C62.4179 16.945 62.3546 16.779 62.2772 16.7299C62.1999 16.6809 62.1366 16.385 62.1366 16.0722C62.1366 15.7594 62.0683 15.5036 61.9849 15.5036C61.8835 15.5036 61.8577 15.1568 61.9072 14.4577C62.0199 12.8689 62.1514 12.0413 62.2914 12.0413C62.3609 12.0413 62.4179 11.9569 62.4179 11.8536C62.4179 11.5883 62.7486 10.8896 62.8749 10.8883C62.933 10.8877 62.9804 10.8136 62.9804 10.7235C62.9804 10.5159 63.6964 9.87771 63.9296 9.87742C64.0263 9.87742 64.1054 9.81236 64.1054 9.73301C64.1054 9.65179 64.5011 9.58875 65.0114 9.58875C65.6922 9.58875 66.0505 9.66824 66.4528 9.90859C66.7473 10.0844 67.0093 10.2792 67.035 10.3414C67.0609 10.4036 67.1399 10.4543 67.2108 10.4543C67.2817 10.4543 67.3397 9.80515 67.3397 9.01168C67.3397 7.66525 67.321 7.56903 67.0585 7.56903C66.9038 7.56903 66.7772 7.50411 66.7772 7.42476C66.7772 7.34541 66.6228 7.28049 66.434 7.28049C66.2451 7.28049 66.0516 7.21558 66.0038 7.13623C65.9549 7.05501 65.2758 6.99196 64.4486 6.99196C63.5635 6.99196 62.9804 7.04924 62.9804 7.13623ZM75.5652 7.31656C75.5228 7.49502 75.5058 10.7898 75.5273 14.6381L75.5663 21.6349L77.2186 21.6756L78.871 21.7162V14.5602C78.871 8.55061 78.8388 7.37109 78.67 7.19812C78.5227 7.04678 78.0932 6.99196 77.0555 6.99196C75.7061 6.99196 75.6384 7.00668 75.5652 7.31656ZM94.6873 7.53296C94.7411 7.83058 94.8432 8.0956 94.914 8.122C94.9849 8.14854 95.0429 8.26295 95.0429 8.37648C95.0429 8.49002 95.1061 8.71176 95.1835 8.86944C95.2608 9.02698 95.3874 9.28492 95.4647 9.44246C95.5421 9.60015 95.6054 9.82736 95.6054 9.94739C95.6054 10.0676 95.6686 10.1658 95.746 10.1658C95.8233 10.1658 95.8866 10.3281 95.8866 10.5265C95.8866 10.7248 95.9499 10.8871 96.0272 10.8871C96.1046 10.8871 96.1679 11.0494 96.1679 11.2478C96.1679 11.4462 96.2311 11.6085 96.3085 11.6085C96.3858 11.6085 96.4491 11.7708 96.4491 11.9691C96.4491 12.1675 96.5124 12.3298 96.5897 12.3298C96.6671 12.3298 96.7304 12.4596 96.7304 12.6183C96.7304 12.777 96.7936 12.9069 96.871 12.9069C96.9483 12.9069 97.0116 13.1016 97.0116 13.3397C97.0116 13.5777 97.0749 13.7725 97.1522 13.7725C97.2296 13.7725 97.2929 13.9023 97.2929 14.061C97.2929 14.2197 97.3561 14.3495 97.4335 14.3495C97.5108 14.3495 97.5741 14.4802 97.5741 14.6401C97.5741 14.7998 97.6332 15.0433 97.7052 15.1811C97.7773 15.3188 98.0659 16.0158 98.3463 16.7299C98.6268 17.444 98.9736 18.3204 99.1169 18.6775C99.2602 19.0346 99.454 19.5378 99.5475 19.7956C99.641 20.0534 99.7971 20.2644 99.8944 20.2644C99.9917 20.2644 100.149 20.0534 100.243 19.7956C100.338 19.5378 100.558 18.9696 100.733 18.5332C101.444 16.7546 101.443 17.0329 100.743 15.2112C100.392 14.3009 100.106 13.5043 100.106 13.4409C100.105 13.3776 99.9788 13.057 99.8241 12.7285C99.6694 12.4001 99.5429 12.0453 99.5429 11.9401C99.5429 11.8348 99.487 11.636 99.4187 11.4983C99.3503 11.3605 99.2163 11.053 99.121 10.815C99.0256 10.577 98.8916 10.2695 98.8233 10.1318C98.7549 9.99399 98.6991 9.75047 98.6991 9.59077C98.6991 9.43092 98.6358 9.30022 98.5585 9.30022C98.4811 9.30022 98.4179 9.13792 98.4179 8.93955C98.4179 8.74119 98.3546 8.57889 98.2772 8.57889C98.1999 8.57889 98.1366 8.41659 98.1366 8.21822C98.1366 8.01986 98.0733 7.85756 97.996 7.85756C97.9186 7.85756 97.8554 7.75556 97.8554 7.63092C97.8554 7.11661 97.4975 6.99196 96.0216 6.99196H94.5896L94.6873 7.53296ZM105.199 7.67723C105.042 8.05405 104.849 8.58971 104.77 8.86742C104.513 9.76244 103.808 11.7535 103.713 11.8507C103.662 11.9026 103.621 12.0965 103.621 12.2818C103.621 12.4669 103.558 12.6183 103.48 12.6183C103.403 12.6183 103.34 12.8131 103.34 13.0511C103.34 13.2892 103.276 13.4839 103.199 13.4839C103.122 13.4839 103.058 13.6787 103.058 13.9167C103.058 14.1548 102.995 14.3495 102.918 14.3495C102.841 14.3495 102.777 14.5118 102.777 14.7102C102.777 14.9086 102.714 15.0709 102.637 15.0709C102.559 15.0709 102.496 15.2656 102.496 15.5036C102.496 15.7417 102.433 15.9364 102.355 15.9364C102.278 15.9364 102.215 16.0987 102.215 16.2971C102.215 16.4955 102.151 16.6578 102.074 16.6578C101.997 16.6578 101.933 16.8162 101.933 17.0099C101.933 17.2037 101.87 17.4022 101.793 17.4512C101.716 17.5003 101.652 17.6988 101.652 17.8925C101.652 18.0863 101.589 18.2447 101.512 18.2447C101.434 18.2447 101.371 18.4395 101.371 18.6775C101.371 18.9155 101.308 19.1103 101.23 19.1103C101.153 19.1103 101.09 19.3051 101.09 19.5431C101.09 19.7811 101.04 19.9759 100.98 19.9759C100.919 19.9759 100.782 20.2842 100.675 20.6612C100.568 21.0381 100.433 21.4438 100.375 21.5628C100.25 21.82 100.009 22.4013 99.4087 23.8946C98.9539 25.0261 98.5783 25.6023 98.2959 25.6023C98.2083 25.6023 98.1366 25.6672 98.1366 25.7465C98.1366 25.8259 97.8202 25.8908 97.4335 25.8908C97.0468 25.8908 96.7304 25.8259 96.7304 25.7465C96.7304 25.6672 96.5405 25.6023 96.3085 25.6023C95.9804 25.6023 95.8866 25.6663 95.8866 25.8908C95.8866 26.0495 95.8233 26.1793 95.746 26.1793C95.6686 26.1793 95.6054 26.4026 95.6054 26.6757C95.6054 26.9488 95.5421 27.2123 95.4647 27.2613C95.178 27.4431 95.3341 27.7755 95.746 27.86C95.978 27.9076 96.1679 28.0034 96.1679 28.0728C96.1679 28.1422 96.87 28.199 97.7282 28.199C99.1107 28.199 99.3391 28.1627 99.7321 27.8801C100.253 27.5057 100.949 26.7772 100.949 26.6072C100.949 26.5419 101.04 26.3954 101.151 26.2816C101.393 26.0332 102.496 23.7317 102.496 23.4749C102.496 23.3754 102.559 23.294 102.637 23.294C102.714 23.294 102.777 23.1317 102.777 22.9333C102.777 22.735 102.841 22.5727 102.918 22.5727C102.995 22.5727 103.058 22.4104 103.058 22.212C103.058 22.0136 103.122 21.8513 103.199 21.8513C103.276 21.8513 103.34 21.689 103.34 21.4907C103.34 21.2923 103.403 21.13 103.48 21.13C103.558 21.13 103.621 21.0041 103.621 20.85C103.621 20.6959 103.684 20.5299 103.762 20.4808C103.839 20.4318 103.902 20.2333 103.902 20.0395C103.902 19.8458 103.966 19.6874 104.043 19.6874C104.12 19.6874 104.183 19.4926 104.183 19.2546C104.183 19.0165 104.247 18.8218 104.324 18.8218C104.401 18.8218 104.465 18.6958 104.465 18.5417C104.465 18.3877 104.528 18.2216 104.605 18.1726C104.683 18.1235 104.746 17.925 104.746 17.7313C104.746 17.5375 104.809 17.3791 104.887 17.3791C104.964 17.3791 105.027 17.2168 105.027 17.0184C105.027 16.8201 105.091 16.6578 105.168 16.6578C105.245 16.6578 105.308 16.4994 105.308 16.3056C105.308 16.1119 105.359 15.9213 105.421 15.8819C105.483 15.8427 105.621 15.4817 105.728 15.0799C105.835 14.6783 105.96 14.3495 106.006 14.3495C106.053 14.3495 106.178 14.0469 106.284 13.677C106.391 13.3071 106.753 12.2851 107.089 11.4059C107.424 10.5268 107.699 9.69334 107.699 9.55384C107.699 9.41433 107.762 9.30022 107.84 9.30022C107.917 9.30022 107.98 9.14181 107.98 8.94806C107.98 8.75431 108.044 8.55581 108.121 8.50675C108.198 8.4577 108.262 8.29165 108.262 8.13758C108.262 7.9835 108.325 7.85756 108.402 7.85756C108.48 7.85756 108.543 7.6628 108.543 7.42476V6.99196H107.013H105.484L105.199 7.67723ZM4.33973 14.7823V21.7071H6.4491H8.55848V14.7823V7.85756H6.4491H4.33973V14.7823Z" fill="white"/>
<path fill-rule="evenodd" clip-rule="evenodd" d="M114.238 14.588C113.766 14.8418 113.183 15.4175 113.183 15.6294C113.183 15.7056 113.111 15.7926 113.023 15.8229C112.811 15.8955 112.817 17.999 113.03 18.0717C113.114 18.1007 113.183 18.1868 113.183 18.2632C113.183 18.4853 113.853 19.1101 114.091 19.1101C114.211 19.1101 114.308 19.1751 114.308 19.2544C114.308 19.3374 114.744 19.3987 115.333 19.3987C116.317 19.3987 116.381 19.3773 116.954 18.8577C117.685 18.1951 117.965 17.6626 117.965 16.934C117.965 16.0687 117.023 14.6386 116.453 14.6381C116.356 14.6381 116.277 14.573 116.277 14.4936C116.277 14.2638 114.705 14.3365 114.238 14.588Z" fill="#00C2CB"/>
</svg>
