<svg width="172" height="41" viewBox="0 0 172 41" fill="none" xmlns="http://www.w3.org/2000/svg">
<path fill-rule="evenodd" clip-rule="evenodd" d="M111.337 0.960607C111.337 1.0759 111.195 1.17024 111.021 1.17024C110.526 1.17024 109.757 2.08632 109.493 2.98962C109.282 3.71117 109.307 3.93065 109.697 4.78049C110.39 6.29339 111.98 6.83885 113.441 6.06427C114.245 5.63809 114.591 5.19409 114.6 4.57673C114.603 4.31742 114.698 4.10506 114.81 4.10506C114.923 4.10506 115.015 3.91639 115.015 3.6858C115.015 3.45521 114.923 3.26654 114.81 3.26654C114.698 3.26654 114.606 3.02651 114.606 2.73303C114.606 2.1446 113.784 1.17024 113.287 1.17024C113.113 1.17024 112.971 1.0759 112.971 0.960607C112.971 0.84531 112.604 0.750977 112.154 0.750977C111.704 0.750977 111.337 0.84531 111.337 0.960607ZM127.684 2.21839C127.684 2.33369 127.365 2.42802 126.975 2.42802C125.916 2.42802 123.801 3.81871 123.801 4.51489C123.801 4.63543 123.709 4.73395 123.597 4.73395C123.485 4.73395 123.393 4.87545 123.393 5.0484C123.393 5.22134 123.301 5.36284 123.188 5.36284C123.076 5.36284 122.984 5.59868 122.984 5.88692C122.984 6.17516 122.892 6.411 122.78 6.411C122.667 6.411 122.575 6.78833 122.575 7.24952C122.575 7.7107 122.483 8.08804 122.371 8.08804C122.259 8.08804 122.167 8.55971 122.167 9.13619V10.1843H120.86C119.336 10.1843 119.306 10.2225 119.306 12.1834V13.5193L120.685 13.5812L122.065 13.6432L122.118 22.6049L122.171 31.5666H124.417H126.662V22.5525V13.5384H128.297H129.932V12.193C129.932 10.185 129.931 10.1843 128.151 10.1843C126.769 10.1843 126.634 10.1483 126.771 9.81749C126.856 9.61561 126.986 9.01398 127.06 8.48047C127.197 7.50107 127.69 6.52021 128.282 6.05085C128.67 5.74248 130.518 5.70244 131.247 5.98649C131.662 6.14875 131.771 6.12716 131.771 5.88168C131.771 5.71167 131.863 5.57247 131.975 5.57247C132.087 5.57247 132.179 5.38381 132.179 5.15321C132.179 4.92262 132.271 4.73395 132.384 4.73395C132.496 4.73395 132.588 4.59245 132.588 4.41951C132.588 4.24656 132.686 4.10506 132.806 4.10506C132.926 4.10506 132.995 3.84575 132.959 3.52858C132.908 3.07578 132.774 2.93784 132.333 2.88585C132.023 2.84938 131.771 2.73135 131.771 2.62381C131.771 2.51606 131.311 2.42802 130.749 2.42802C130.187 2.42802 129.727 2.33369 129.727 2.21839C129.727 2.10309 129.268 2.00876 128.706 2.00876C128.144 2.00876 127.684 2.10309 127.684 2.21839ZM99.1004 16.316C99.1137 23.9545 99.1834 30.487 99.2553 30.8329L99.3861 31.4618L101.581 31.5214L103.776 31.5809V17.0045V2.42802H101.426H99.0763L99.1004 16.316ZM0.0607488 4.16879C0.00353364 4.32161 -0.0169003 5.47814 0.0151811 6.73886L0.0736229 9.03137L8.96241 9.08965C13.8512 9.12152 18.061 9.09552 18.3175 9.03158C18.774 8.91755 18.7824 8.86493 18.7262 6.45774L18.6686 4.00025L9.41666 3.94574C1.88857 3.9013 0.145141 3.94281 0.0607488 4.16879ZM22.7292 10.4464C22.6313 10.5906 22.5757 15.4016 22.6058 21.1375L22.6607 31.5666H24.9046H27.1487V21.7107C27.1487 14.4411 27.082 11.6356 26.8947 11.0195L26.6405 10.1843H24.774C23.5122 10.1843 22.8498 10.2692 22.7292 10.4464ZM30.8268 10.394C30.8268 10.5093 30.5509 10.6036 30.2138 10.6036C29.8766 10.6036 29.6007 10.6979 29.6007 10.8132C29.6007 10.9285 29.4563 11.0229 29.2797 11.0229C28.5937 11.0229 28.3747 11.574 28.3747 13.2997C28.3747 14.8134 28.4162 14.9912 28.7985 15.1155C29.0314 15.1914 29.4943 15.1379 29.8267 14.9966C30.2268 14.8266 31.0849 14.7748 32.3659 14.8436L34.3006 14.9474V12.566V10.1843H32.5637C31.542 10.1843 30.8268 10.2707 30.8268 10.394ZM45.1306 10.394C45.1306 10.5093 44.9467 10.6036 44.7219 10.6036C44.4971 10.6036 44.3132 10.6979 44.3132 10.8132C44.3132 10.9285 44.1293 11.0229 43.9045 11.0229C43.6798 11.0229 43.4958 11.1172 43.4958 11.2325C43.4958 11.3478 43.3563 11.4421 43.1855 11.4421C43.0148 11.4421 42.2923 12.0402 41.5797 12.7712C39.4207 14.9861 38.3941 17.6363 38.3898 21.0059C38.3863 23.6877 39.3655 26.6646 40.733 28.1312C40.9602 28.3748 41.2812 28.7756 41.4465 29.0221C41.6118 29.2687 41.8194 29.4703 41.9081 29.4703C41.9966 29.4703 42.3579 29.7533 42.7106 30.0992C43.0635 30.4451 43.4764 30.7281 43.6283 30.7281C43.7803 30.7281 43.9045 30.8224 43.9045 30.9377C43.9045 31.053 44.1804 31.1474 44.5175 31.1474C44.8547 31.1474 45.1306 31.2417 45.1306 31.357C45.1306 31.4723 45.434 31.5666 45.8049 31.5666C46.1758 31.5666 46.5797 31.6698 46.7028 31.796C47.0185 32.1198 50.9446 31.731 51.3527 31.3356C51.4594 31.2321 51.7124 31.1474 51.9146 31.1474C52.1169 31.1474 52.2825 31.053 52.2825 30.9377C52.2825 30.8224 52.4228 30.7281 52.5943 30.7281C52.7659 30.7281 53.3176 30.3061 53.8203 29.7902C54.8238 28.7607 54.9824 28.0692 54.3259 27.5837C54.1011 27.4174 53.9172 27.1541 53.9172 26.9984C53.9172 26.6334 53.4131 26.1162 53.0573 26.1162C52.9055 26.1162 52.6488 26.3049 52.4868 26.5355C52.3248 26.7661 52.0287 26.9548 51.8286 26.9548C51.6288 26.9548 51.4651 27.0491 51.4651 27.1644C51.4651 27.2797 51.2352 27.374 50.9543 27.374C50.6733 27.374 50.4434 27.4684 50.4434 27.5837C50.4434 27.7094 49.626 27.7933 48.4 27.7933C47.174 27.7933 46.3566 27.7094 46.3566 27.5837C46.3566 27.4684 46.1727 27.374 45.9479 27.374C45.7231 27.374 45.5392 27.2797 45.5392 27.1644C45.5392 27.0491 45.4244 26.9546 45.2838 26.9546C45.1434 26.9543 44.7985 26.7422 44.5175 26.4829C42.6609 24.7696 42.2018 20.2164 43.5663 17.0508C44.1442 15.71 45.3784 14.3769 46.0415 14.3769C46.2148 14.3769 46.3566 14.2826 46.3566 14.1673C46.3566 14.052 46.5405 13.9577 46.7653 13.9577C47.1437 13.9577 47.174 13.8179 47.174 12.071V10.1843H46.1523C45.5903 10.1843 45.1306 10.2787 45.1306 10.394ZM48.4 11.9727C48.4 13.4915 48.4539 13.7789 48.7576 13.8789C50.3437 14.4008 51.6576 15.4226 52.1194 16.493C52.2639 16.8279 52.4517 17.1021 52.5367 17.1021C52.6217 17.1021 52.6911 17.5738 52.6911 18.1503V19.1984H48.5022H44.3132V20.8755V22.5525H50.7499H57.1866V20.4187C57.1866 18.4549 57.0127 17.3665 56.5485 16.4238C56.45 16.2236 56.3693 15.9169 56.3693 15.7425C56.3693 15.5679 56.2773 15.4251 56.1649 15.4251C56.0525 15.4251 55.9606 15.2836 55.9606 15.1107C55.9606 14.9377 55.8686 14.7962 55.7562 14.7962C55.6439 14.7962 55.5519 14.6547 55.5519 14.4818C55.5519 14.3088 55.4599 14.1673 55.3476 14.1673C55.2352 14.1673 55.1432 14.0669 55.1432 13.9441C55.1432 13.6252 53.1807 11.7063 52.692 11.5471C52.4668 11.4738 52.2825 11.326 52.2825 11.2184C52.2825 11.1109 52.0986 11.0229 51.8738 11.0229C51.649 11.0229 51.4651 10.9285 51.4651 10.8132C51.4651 10.6979 51.1892 10.6036 50.8521 10.6036C50.5149 10.6036 50.2391 10.5093 50.2391 10.394C50.2391 10.2787 49.8253 10.1843 49.3195 10.1843H48.4V11.9727ZM63.2488 10.3242C63.1738 10.4009 63.1125 15.2119 63.1125 21.0153V31.5666H65.473H67.8335L67.7718 21.2272C67.716 11.8794 67.6772 10.8539 67.367 10.5361C67.0975 10.2596 66.6351 10.1843 65.2045 10.1843C64.2037 10.1843 63.3236 10.2472 63.2488 10.3242ZM71.4904 10.394C71.4904 10.5093 71.2145 10.6036 70.8774 10.6036C70.5402 10.6036 70.2644 10.6979 70.2644 10.8132C70.2644 10.9285 70.1199 11.0229 69.9434 11.0229C69.2913 11.0229 69.0383 11.5824 69.0383 13.0238V14.4258L69.6003 14.269C69.9092 14.1828 70.974 14.0707 71.9661 14.0197L73.77 13.9271L74.4607 14.6566C74.8404 15.0578 75.2074 15.6542 75.2762 15.9821C75.3449 16.3099 75.4867 16.7948 75.5913 17.0596C75.6959 17.3244 75.7815 20.6969 75.7815 24.5539V31.5666H77.9104C79.0812 31.5666 80.1847 31.5094 80.3624 31.4394C80.6473 31.3272 80.6857 30.5665 80.6857 25.0457C80.6857 21.0078 80.613 18.7792 80.4814 18.7792C80.3612 18.7792 80.277 18.0455 80.277 16.9973C80.277 15.9492 80.1928 15.2155 80.0727 15.2155C79.9603 15.2155 79.8683 14.9325 79.8683 14.5866C79.8683 14.2407 79.7764 13.9577 79.664 13.9577C79.5516 13.9577 79.4597 13.8275 79.4597 13.6686C79.4597 13.2227 77.2489 11.0229 76.801 11.0229C76.6898 11.0229 76.5989 10.9285 76.5989 10.8132C76.5989 10.6979 76.369 10.6036 76.0881 10.6036C75.8071 10.6036 75.5772 10.5093 75.5772 10.394C75.5772 10.2682 74.7598 10.1843 73.5338 10.1843C72.3078 10.1843 71.4904 10.2682 71.4904 10.394ZM91.5157 10.394C91.5157 10.5093 91.2399 10.6036 90.9027 10.6036C90.5655 10.6036 90.2897 10.6979 90.2897 10.8132C90.2897 10.9285 90.1058 11.0229 89.881 11.0229C89.6562 11.0229 89.4723 11.1109 89.4723 11.2184C89.4723 11.326 89.2839 11.4752 89.0534 11.5503C88.6597 11.6784 87.7093 12.5706 87.0202 13.4588C86.737 13.8237 85.9663 15.379 85.5778 16.3684C85.0729 17.6554 84.9407 22.0148 85.3491 23.9151C85.473 24.4916 85.6344 25.271 85.7078 25.6471C85.7813 26.0232 85.9227 26.3827 86.022 26.4456C86.1216 26.5087 86.2029 26.7433 86.2029 26.9671C86.2029 27.191 86.2948 27.374 86.4072 27.374C86.5196 27.374 86.6116 27.5419 86.6116 27.747C86.6116 27.9522 86.7955 28.2559 87.0202 28.4222C87.245 28.5884 87.4291 28.8215 87.4291 28.9402C87.4295 29.2854 88.3683 30.3089 88.6848 30.3089C88.8436 30.3089 89.1059 30.4975 89.268 30.7281C89.43 30.9587 89.7208 31.1474 89.9141 31.1474C90.1074 31.1474 90.316 31.2312 90.378 31.3339C90.6356 31.7616 93.8172 32.0947 94.8178 31.7987C95.2494 31.671 95.9934 31.4515 96.471 31.3109C97.7661 30.9296 97.8503 30.7736 97.8503 28.7515C97.8503 27.1688 97.8069 26.9548 97.4867 26.9548C97.2867 26.9548 96.9906 27.1434 96.8286 27.374C96.6555 27.6201 96.2995 27.7933 95.966 27.7933C95.6538 27.7933 95.3982 27.8876 95.3982 28.0029C95.3982 28.1182 95.0763 28.2125 94.683 28.2125C94.2896 28.2125 93.9678 28.1182 93.9678 28.0029C93.9678 27.8876 93.7379 27.7933 93.4569 27.7933C93.176 27.7933 92.9461 27.699 92.9461 27.5837C92.9461 27.4684 92.8511 27.374 92.735 27.374C92.4056 27.374 91.107 25.9582 91.107 25.5991C91.107 25.4224 91.0151 25.2777 90.9027 25.2777C90.7903 25.2777 90.6984 25.0947 90.6984 24.8708C90.6984 24.6469 90.6064 24.4057 90.494 24.3344C90.3816 24.2631 90.2897 23.8332 90.2897 23.3787C90.2897 22.9242 90.1904 22.5525 90.0692 22.5525C89.9219 22.5525 89.8845 22.0486 89.9564 21.0327C90.1201 18.7241 90.3111 17.5214 90.5147 17.5214C90.6156 17.5214 90.6984 17.3988 90.6984 17.2487C90.6984 16.8632 91.179 15.8479 91.3625 15.846C91.4469 15.8452 91.5157 15.7374 91.5157 15.6066C91.5157 15.305 92.5562 14.3776 92.895 14.3772C93.0356 14.3772 93.1504 14.2826 93.1504 14.1673C93.1504 14.0493 93.7254 13.9577 94.467 13.9577C95.4562 13.9577 95.9769 14.0732 96.5615 14.4224C96.9894 14.678 97.3701 14.961 97.4074 15.0513C97.445 15.1417 97.5599 15.2155 97.6629 15.2155C97.7659 15.2155 97.8503 14.2721 97.8503 13.1192C97.8503 11.1627 97.8231 11.0229 97.4416 11.0229C97.2168 11.0229 97.0329 10.9285 97.0329 10.8132C97.0329 10.6979 96.8085 10.6036 96.5341 10.6036C96.2597 10.6036 95.9785 10.5093 95.909 10.394C95.8379 10.2759 94.8512 10.1843 93.6492 10.1843C92.3631 10.1843 91.5157 10.2676 91.5157 10.394ZM109.803 10.656C109.741 10.9153 109.716 15.7029 109.748 21.2947L109.804 31.4618L112.205 31.5209L114.606 31.5798V21.1815C114.606 12.4492 114.559 10.7352 114.314 10.4839C114.1 10.264 113.476 10.1843 111.968 10.1843C110.007 10.1843 109.909 10.2057 109.803 10.656ZM137.589 10.9705C137.667 11.4029 137.815 11.788 137.918 11.8264C138.021 11.8649 138.105 12.0312 138.105 12.1962C138.105 12.3611 138.197 12.6833 138.31 12.9125C138.422 13.1414 138.606 13.5162 138.718 13.7451C138.831 13.9742 138.923 14.3044 138.923 14.4788C138.923 14.6535 139.015 14.7962 139.127 14.7962C139.239 14.7962 139.331 15.032 139.331 15.3203C139.331 15.6085 139.423 15.8444 139.536 15.8444C139.648 15.8444 139.74 16.0802 139.74 16.3684C139.74 16.6567 139.832 16.8925 139.944 16.8925C140.057 16.8925 140.149 17.1283 140.149 17.4166C140.149 17.7048 140.241 17.9407 140.353 17.9407C140.465 17.9407 140.557 18.1293 140.557 18.3599C140.557 18.5905 140.649 18.7792 140.762 18.7792C140.874 18.7792 140.966 19.0622 140.966 19.4081C140.966 19.754 141.058 20.037 141.17 20.037C141.283 20.037 141.375 20.2256 141.375 20.4562C141.375 20.6868 141.467 20.8755 141.579 20.8755C141.691 20.8755 141.783 21.0654 141.783 21.2977C141.783 21.5297 141.869 21.8836 141.974 22.0838C142.079 22.284 142.498 23.2967 142.905 24.3344C143.313 25.3721 143.817 26.6456 144.025 27.1644C144.233 27.6832 144.515 28.4144 144.651 28.789C144.787 29.1636 145.014 29.4703 145.155 29.4703C145.296 29.4703 145.524 29.1636 145.662 28.789C145.799 28.4144 146.119 27.5889 146.373 26.9548C147.407 24.3702 147.405 24.7746 146.387 22.1276C145.879 20.8048 145.462 19.6473 145.462 19.5552C145.462 19.4632 145.278 18.9974 145.053 18.5201C144.828 18.0428 144.644 17.5273 144.644 17.3745C144.644 17.2214 144.563 16.9326 144.464 16.7324C144.364 16.5322 144.17 16.0854 144.031 15.7395C143.893 15.3937 143.698 14.9469 143.598 14.7467C143.499 14.5465 143.418 14.1927 143.418 13.9606C143.418 13.7284 143.326 13.5384 143.214 13.5384C143.101 13.5384 143.009 13.3026 143.009 13.0144C143.009 12.7261 142.917 12.4903 142.805 12.4903C142.693 12.4903 142.601 12.2544 142.601 11.9662C142.601 11.678 142.509 11.4421 142.396 11.4421C142.284 11.4421 142.192 11.2939 142.192 11.1128C142.192 10.3655 141.672 10.1843 139.527 10.1843H137.447L137.589 10.9705ZM152.863 11.1801C152.635 11.7276 152.355 12.506 152.239 12.9095C151.866 14.2101 150.841 17.1032 150.704 17.2445C150.63 17.3199 150.57 17.6017 150.57 17.8709C150.57 18.1398 150.478 18.3599 150.366 18.3599C150.253 18.3599 150.161 18.6429 150.161 18.9888C150.161 19.3347 150.069 19.6177 149.957 19.6177C149.845 19.6177 149.753 19.9007 149.753 20.2466C149.753 20.5925 149.661 20.8755 149.548 20.8755C149.436 20.8755 149.344 21.1113 149.344 21.3996C149.344 21.6878 149.252 21.9236 149.14 21.9236C149.027 21.9236 148.935 22.2066 148.935 22.5525C148.935 22.8984 148.843 23.1814 148.731 23.1814C148.618 23.1814 148.527 23.4173 148.527 23.7055C148.527 23.9937 148.435 24.2296 148.322 24.2296C148.21 24.2296 148.118 24.4597 148.118 24.7413C148.118 25.0228 148.026 25.3113 147.914 25.3825C147.801 25.4538 147.709 25.7423 147.709 26.0238C147.709 26.3053 147.617 26.5355 147.505 26.5355C147.392 26.5355 147.301 26.8185 147.301 27.1644C147.301 27.5103 147.209 27.7933 147.096 27.7933C146.984 27.7933 146.892 28.0763 146.892 28.4222C146.892 28.7681 146.82 29.0511 146.732 29.0511C146.644 29.0511 146.445 29.4991 146.289 30.0468C146.133 30.5946 145.937 31.1841 145.853 31.357C145.671 31.7308 145.321 32.5754 144.449 34.7453C143.788 36.3894 143.243 37.2267 142.832 37.2267C142.705 37.2267 142.601 37.321 142.601 37.4363C142.601 37.5516 142.141 37.6459 141.579 37.6459C141.017 37.6459 140.557 37.5516 140.557 37.4363C140.557 37.321 140.281 37.2267 139.944 37.2267C139.468 37.2267 139.331 37.3197 139.331 37.6459C139.331 37.8765 139.239 38.0652 139.127 38.0652C139.015 38.0652 138.923 38.3897 138.923 38.7865C138.923 39.1833 138.831 39.5661 138.718 39.6374C138.302 39.9015 138.528 40.3845 139.127 40.5074C139.464 40.5765 139.74 40.7157 139.74 40.8166C139.74 40.9174 140.76 41 142.007 41C144.016 41 144.348 40.9472 144.919 40.5365C145.675 39.9925 146.687 38.9339 146.687 38.6869C146.687 38.592 146.819 38.3792 146.98 38.2138C147.332 37.8528 148.935 34.5086 148.935 34.1354C148.935 33.9908 149.027 33.8726 149.14 33.8726C149.252 33.8726 149.344 33.6367 149.344 33.3485C149.344 33.0602 149.436 32.8244 149.548 32.8244C149.661 32.8244 149.753 32.5886 149.753 32.3003C149.753 32.0121 149.845 31.7763 149.957 31.7763C150.069 31.7763 150.161 31.5404 150.161 31.2522C150.161 30.9639 150.253 30.7281 150.366 30.7281C150.478 30.7281 150.57 30.5451 150.57 30.3212C150.57 30.0973 150.662 29.8561 150.774 29.7848C150.887 29.7135 150.979 29.4251 150.979 29.1435C150.979 28.862 151.071 28.6318 151.183 28.6318C151.295 28.6318 151.387 28.3488 151.387 28.0029C151.387 27.657 151.479 27.374 151.592 27.374C151.704 27.374 151.796 27.191 151.796 26.9671C151.796 26.7433 151.888 26.502 152 26.4307C152.113 26.3594 152.205 26.071 152.205 25.7894C152.205 25.5079 152.297 25.2777 152.409 25.2777C152.521 25.2777 152.613 25.0419 152.613 24.7536C152.613 24.4654 152.705 24.2296 152.818 24.2296C152.93 24.2296 153.022 23.9994 153.022 23.7179C153.022 23.4363 153.096 23.1594 153.186 23.1022C153.276 23.0452 153.476 22.5207 153.632 21.9368C153.786 21.3532 153.969 20.8755 154.036 20.8755C154.104 20.8755 154.285 20.4357 154.44 19.8982C154.595 19.3607 155.121 17.8757 155.609 16.5982C156.097 15.3207 156.496 14.1097 156.496 13.907C156.496 13.7042 156.588 13.5384 156.7 13.5384C156.813 13.5384 156.904 13.3083 156.904 13.0267C156.904 12.7452 156.996 12.4567 157.109 12.3855C157.221 12.3142 157.313 12.0729 157.313 11.849C157.313 11.6251 157.405 11.4421 157.518 11.4421C157.63 11.4421 157.722 11.1591 157.722 10.8132V10.1843H155.499H153.277L152.863 11.1801ZM6.30599 21.5044V31.5666H9.37109H12.4362V21.5044V11.4421H9.37109H6.30599V21.5044Z" fill="white"/>
<path fill-rule="evenodd" clip-rule="evenodd" d="M165.998 21.2219C165.312 21.5906 164.465 22.4273 164.465 22.7352C164.465 22.8459 164.36 22.9723 164.232 23.0163C163.923 23.1218 163.932 26.1784 164.241 26.284C164.364 26.3262 164.465 26.4513 164.465 26.5622C164.465 26.885 165.438 27.793 165.784 27.793C165.958 27.793 166.1 27.8873 166.1 28.0026C166.1 28.1231 166.732 28.2122 167.589 28.2122C169.019 28.2122 169.112 28.1812 169.944 27.4261C171.006 26.4633 171.413 25.6895 171.413 24.6309C171.413 23.3735 170.044 21.2955 169.216 21.2946C169.076 21.2946 168.96 21.2001 168.96 21.0848C168.96 20.7508 166.677 20.8565 165.998 21.2219Z" fill="#00C2CB"/>
</svg>
