<svg width="1512" height="403" viewBox="0 0 1512 403" fill="none" xmlns="http://www.w3.org/2000/svg">
<path d="M1646.19 232.504C1647.85 235.639 1648.97 238.802 1649.55 241.988L1649.06 242.077C1649.35 243.712 1649.5 245.353 1649.5 247C1649.5 248.647 1649.35 250.287 1649.06 251.923L1649.55 252.012C1648.97 255.198 1647.85 258.36 1646.19 261.495L1645.75 261.262C1644.29 264.029 1642.41 266.78 1640.11 269.515L1640.49 269.836C1638.46 272.253 1636.12 274.651 1633.46 277.03L1633.13 276.657C1630.78 278.76 1628.19 280.849 1625.35 282.923L1625.65 283.327C1623.06 285.223 1620.27 287.105 1617.29 288.974L1617.02 288.55C1614.26 290.282 1611.32 292.003 1608.22 293.711L1608.46 294.149C1605.64 295.707 1602.68 297.254 1599.58 298.791L1599.36 298.343C1596.45 299.787 1593.42 301.223 1590.27 302.648L1590.48 303.104C1587.45 304.473 1584.32 305.832 1581.09 307.182L1580.89 306.721C1577.91 307.966 1574.83 309.204 1571.67 310.433L1571.85 310.899C1568.72 312.114 1565.5 313.32 1562.21 314.519L1562.03 314.049C1558.99 315.153 1555.88 316.25 1552.69 317.34L1552.86 317.813C1549.68 318.901 1546.43 319.981 1543.1 321.054L1542.95 320.578C1539.85 321.58 1536.69 322.575 1533.47 323.563L1533.62 324.041C1530.42 325.022 1527.16 325.997 1523.84 326.965L1523.7 326.485C1520.54 327.409 1517.32 328.326 1514.05 329.237L1514.19 329.719C1510.99 330.61 1507.74 331.496 1504.44 332.375L1504.31 331.892C1501.07 332.755 1497.79 333.611 1494.46 334.462L1494.58 334.947C1491.39 335.761 1488.16 336.569 1484.89 337.372L1484.77 336.887C1481.49 337.689 1478.18 338.486 1474.82 339.277L1474.94 339.764C1471.72 340.522 1468.47 341.274 1465.18 342.022L1465.07 341.534C1461.82 342.271 1458.54 343.002 1455.22 343.728L1455.33 344.216C1452.02 344.94 1448.68 345.658 1445.3 346.371L1445.2 345.882C1441.98 346.561 1438.74 347.234 1435.46 347.903L1435.56 348.393C1432.28 349.062 1428.97 349.726 1425.62 350.385L1425.53 349.895C1422.22 350.546 1418.88 351.193 1415.52 351.835L1415.61 352.326C1412.37 352.944 1409.1 353.558 1405.8 354.167L1405.71 353.676C1402.41 354.284 1399.08 354.889 1395.73 355.488L1395.82 355.981C1392.5 356.574 1389.16 357.162 1385.79 357.746L1385.7 357.253C1382.44 357.818 1379.16 358.378 1375.85 358.933L1375.93 359.426C1372.63 359.982 1369.29 360.533 1365.94 361.08L1365.86 360.587C1362.52 361.13 1359.16 361.67 1355.78 362.204L1355.85 362.698C1352.59 363.214 1349.3 363.726 1345.99 364.234L1345.91 363.74C1342.6 364.247 1339.27 364.751 1335.92 365.25L1335.99 365.745C1332.64 366.244 1329.27 366.739 1325.87 367.23L1325.8 366.735C1322.52 367.209 1319.22 367.679 1315.9 368.145L1315.97 368.64C1312.66 369.104 1309.34 369.565 1305.99 370.021L1305.92 369.525C1302.58 369.981 1299.21 370.433 1295.83 370.881L1295.9 371.377C1292.58 371.817 1289.24 372.252 1285.88 372.684L1285.82 372.188C1282.52 372.613 1279.2 373.033 1275.86 373.45L1275.92 373.946C1272.59 374.363 1269.24 374.776 1265.87 375.185L1265.81 374.688C1262.44 375.097 1259.06 375.501 1255.66 375.902L1255.72 376.398C1252.43 376.786 1249.12 377.171 1245.79 377.551L1245.74 377.054C1242.41 377.435 1239.08 377.811 1235.72 378.184L1235.78 378.681C1232.42 379.054 1229.05 379.423 1225.67 379.789L1225.61 379.292C1222.27 379.652 1218.92 380.009 1215.55 380.362L1215.6 380.86C1212.29 381.207 1208.96 381.55 1205.62 381.89L1205.57 381.392C1202.23 381.732 1198.88 382.068 1195.51 382.4L1195.56 382.898C1192.19 383.23 1188.81 383.559 1185.42 383.884L1185.37 383.386C1182.04 383.704 1178.7 384.019 1175.35 384.331L1175.4 384.828C1172.07 385.137 1168.73 385.442 1165.38 385.744L1165.34 385.246C1161.99 385.547 1158.63 385.845 1155.25 386.14L1155.3 386.638C1151.92 386.932 1148.54 387.223 1145.14 387.51L1145.1 387.012C1141.77 387.292 1138.44 387.569 1135.1 387.843L1135.14 388.341C1131.8 388.614 1128.46 388.883 1125.1 389.149L1125.06 388.65C1121.71 388.916 1118.34 389.178 1114.96 389.437L1115 389.935C1111.62 390.194 1108.23 390.449 1104.83 390.701L1104.8 390.202C1101.47 390.448 1098.14 390.69 1094.8 390.929L1094.83 391.428C1091.49 391.667 1088.15 391.902 1084.79 392.134L1084.75 391.635C1081.39 391.867 1078.02 392.095 1074.65 392.32L1074.68 392.819C1071.3 393.044 1067.91 393.265 1064.51 393.483L1064.48 392.984C1061.15 393.197 1057.81 393.408 1054.47 393.614L1054.5 394.113C1051.15 394.32 1047.8 394.523 1044.44 394.722L1044.41 394.223C1041.05 394.423 1037.68 394.619 1034.31 394.812L1034.34 395.311C1030.96 395.504 1027.57 395.693 1024.17 395.879L1024.15 395.38C1020.81 395.562 1017.46 395.742 1014.1 395.918L1014.13 396.417C1010.79 396.593 1007.43 396.765 1004.08 396.934L1004.05 396.435C1000.69 396.603 997.323 396.769 993.948 396.931L993.972 397.43C990.596 397.592 987.213 397.751 983.821 397.906L983.798 397.407C980.445 397.56 977.085 397.711 973.717 397.857L973.739 398.357C970.396 398.503 967.045 398.645 963.687 398.785L963.666 398.285C960.309 398.424 956.944 398.56 953.572 398.693L953.591 399.192C950.219 399.325 946.839 399.454 943.452 399.58L943.434 399.08C940.066 399.205 936.692 399.327 933.31 399.446L933.328 399.945C929.985 400.063 926.636 400.176 923.281 400.287L923.264 399.787C919.909 399.898 916.547 400.005 913.179 400.109L913.194 400.609C909.825 400.713 906.45 400.814 903.068 400.911L903.054 400.411C899.673 400.509 896.285 400.603 892.891 400.694L892.904 401.194C889.562 401.283 886.213 401.369 882.858 401.452L882.846 400.952C879.493 401.035 876.135 401.115 872.77 401.191L872.782 401.691C869.417 401.767 866.046 401.84 862.67 401.91L862.659 401.41C859.283 401.48 855.901 401.547 852.514 401.61L852.523 402.11C849.162 402.172 845.795 402.232 842.422 402.288L842.414 401.788C839.064 401.844 835.709 401.896 832.348 401.946L832.356 402.446C828.995 402.495 825.629 402.541 822.258 402.584L822.251 402.084C818.88 402.127 815.504 402.166 812.123 402.203L812.128 402.703C808.749 402.739 805.365 402.772 801.975 402.801L801.971 402.301C798.624 402.331 795.272 402.357 791.915 402.38L791.919 402.88C788.562 402.903 785.2 402.922 781.833 402.939L781.831 402.439C778.465 402.455 775.094 402.468 771.719 402.478L771.721 402.978C768.345 402.988 764.965 402.994 761.58 402.998L761.58 402.498C760.913 402.498 760.246 402.499 759.579 402.499C758.553 402.5 757.527 402.5 756.5 402.5C754.806 402.5 753.113 402.499 751.421 402.498L751.42 402.998C748.036 402.994 744.656 402.988 741.28 402.978L741.282 402.478C737.906 402.468 734.536 402.455 731.17 402.439L731.167 402.939C727.801 402.922 724.439 402.903 721.082 402.88L721.085 402.38C717.729 402.357 714.377 402.331 711.03 402.301L711.026 402.801C707.636 402.772 704.252 402.739 700.872 402.703L700.878 402.203C697.497 402.166 694.12 402.127 690.749 402.084L690.743 402.584C687.372 402.541 684.006 402.495 680.645 402.446L680.652 401.946C677.292 401.896 673.937 401.844 670.587 401.788L670.579 402.288C667.206 402.232 663.839 402.172 660.477 402.11L660.487 401.61C657.099 401.547 653.717 401.48 650.341 401.41L650.331 401.91C646.954 401.84 643.584 401.767 640.219 401.691L640.23 401.191C636.866 401.115 633.507 401.035 630.155 400.952L630.142 401.452C626.788 401.369 623.439 401.283 620.096 401.194L620.11 400.694C616.716 400.603 613.328 400.509 609.947 400.412L609.932 400.911C606.55 400.814 603.175 400.713 599.806 400.609L599.822 400.109C596.453 400.005 593.092 399.898 589.736 399.787L589.72 400.287C586.364 400.176 583.015 400.063 579.673 399.945L579.69 399.446C576.309 399.327 572.934 399.205 569.567 399.08L569.548 399.58C566.161 399.454 562.782 399.325 559.409 399.192L559.429 398.693C556.057 398.56 552.692 398.424 549.334 398.285L549.313 398.785C545.955 398.645 542.605 398.503 539.262 398.357L539.283 397.857C535.915 397.711 532.555 397.56 529.202 397.407L529.179 397.906C525.788 397.751 522.404 397.592 519.028 397.43L519.052 396.931C515.677 396.769 512.31 396.603 508.95 396.435L508.925 396.934C505.566 396.765 502.214 396.593 498.871 396.417L498.897 395.918C495.541 395.742 492.193 395.562 488.853 395.38L488.826 395.879C485.43 395.693 482.043 395.504 478.665 395.311L478.694 394.812C475.316 394.619 471.947 394.423 468.587 394.223L468.558 394.722C465.197 394.523 461.846 394.32 458.504 394.113L458.535 393.614C455.187 393.408 451.849 393.197 448.52 392.984L448.488 393.483C445.089 393.265 441.7 393.044 438.321 392.819L438.355 392.32C434.976 392.095 431.607 391.867 428.248 391.635L428.214 392.134C424.855 391.902 421.505 391.667 418.166 391.428L418.202 390.929C414.859 390.69 411.526 390.448 408.203 390.202L408.166 390.701C404.766 390.449 401.377 390.194 397.999 389.935L398.037 389.437C394.66 389.178 391.293 388.916 387.937 388.65L387.898 389.149C384.542 388.883 381.197 388.614 377.863 388.341L377.904 387.843C374.559 387.569 371.226 387.292 367.905 387.012L367.863 387.51C364.464 387.223 361.077 386.932 357.703 386.638L357.746 386.14C354.372 385.845 351.011 385.547 347.661 385.246L347.616 385.744C344.266 385.442 340.929 385.137 337.603 384.828L337.65 384.331C334.297 384.019 330.957 383.704 327.629 383.386L327.582 383.884C324.188 383.559 320.807 383.23 317.44 382.898L317.489 382.4C314.123 382.068 310.77 381.732 307.43 381.392L307.38 381.89C304.04 381.55 300.714 381.207 297.402 380.86L297.454 380.362C294.084 380.009 290.728 379.652 287.387 379.292L287.333 379.789C283.948 379.424 280.578 379.054 277.224 378.681L277.279 378.184C273.925 377.812 270.586 377.435 267.262 377.054L267.206 377.551C263.882 377.171 260.573 376.786 257.28 376.398L257.338 375.902C253.94 375.501 250.558 375.097 247.193 374.688L247.133 375.185C243.763 374.776 240.411 374.363 237.075 373.946L237.137 373.45C233.803 373.033 230.485 372.613 227.184 372.188L227.121 372.684C223.763 372.252 220.424 371.817 217.103 371.377L217.169 370.881C213.786 370.433 210.422 369.981 207.077 369.525L207.01 370.021C203.664 369.565 200.338 369.104 197.031 368.64L197.1 368.145C193.781 367.679 190.481 367.209 187.201 366.735L187.129 367.23C183.734 366.739 180.359 366.244 177.006 365.745L177.08 365.25C173.727 364.751 170.396 364.247 167.087 363.74L167.011 364.234C163.701 363.726 160.413 363.214 157.146 362.698L157.224 362.204C153.84 361.67 150.48 361.13 147.144 360.587L147.063 361.08C143.707 360.534 140.374 359.982 137.066 359.426L137.148 358.933C133.841 358.378 130.558 357.818 127.3 357.253L127.214 357.746C123.844 357.162 120.501 356.574 117.184 355.981L117.272 355.489C113.918 354.889 110.592 354.285 107.294 353.676L107.203 354.167C103.904 353.558 100.632 352.944 97.3886 352.326L97.4822 351.835C94.1159 351.193 90.78 350.546 87.4749 349.895L87.3781 350.385C84.0348 349.726 80.7229 349.062 77.4428 348.393L77.5427 347.903C74.2638 347.234 71.0168 346.561 67.802 345.882L67.6987 346.371C64.3202 345.658 60.9774 344.94 57.6706 344.216L57.7775 343.728C54.4601 343.002 51.1791 342.271 47.935 341.534L47.8244 342.022C44.5324 341.275 41.2784 340.522 38.0627 339.764L38.1774 339.277C34.8207 338.486 31.5059 337.689 28.2336 336.887L28.1145 337.372C24.8407 336.569 21.6094 335.761 18.4211 334.947L18.5448 334.462C15.2125 333.612 11.9274 332.755 8.68996 331.892L8.5612 332.375C5.26242 331.496 2.01311 330.611 -1.18602 329.719L-1.05182 329.238C-4.32196 328.326 -7.53957 327.409 -10.7039 326.485L-10.844 326.965C-14.1605 325.997 -17.4185 325.022 -20.6174 324.041L-20.4707 323.563C-23.6911 322.575 -26.8512 321.58 -29.9503 320.579L-30.1041 321.054C-33.4245 319.982 -36.6751 318.901 -39.8547 317.813L-39.6928 317.34C-42.8783 316.25 -45.9924 315.153 -49.0339 314.049L-49.2045 314.519C-52.5043 313.321 -55.7191 312.114 -58.8474 310.899L-58.6664 310.433C-61.8312 309.204 -64.9072 307.966 -67.8928 306.721L-68.0853 307.182C-71.3212 305.832 -74.4516 304.473 -77.4746 303.104L-77.2683 302.648C-80.4161 301.223 -83.4468 299.788 -86.3583 298.343L-86.5806 298.791C-89.6766 297.255 -92.6386 295.707 -95.4644 294.149L-95.223 293.711C-98.3216 292.003 -101.255 290.283 -104.02 288.551L-104.285 288.974C-107.268 287.106 -110.056 285.223 -112.647 283.327L-112.351 282.924C-115.185 280.849 -117.779 278.76 -120.127 276.658L-120.46 277.03C-123.117 274.651 -125.464 272.253 -127.494 269.837L-127.111 269.515C-129.409 266.781 -131.291 264.029 -132.751 261.263L-133.194 261.496C-134.848 258.361 -135.972 255.198 -136.548 252.012L-136.056 251.923C-136.351 250.288 -136.5 248.647 -136.5 247C-136.5 245.353 -136.351 243.713 -136.056 242.077L-136.548 241.988C-135.972 238.802 -134.848 235.64 -133.194 232.505L-132.752 232.738C-131.292 229.971 -129.409 227.22 -127.112 224.485L-127.495 224.164C-125.465 221.747 -123.118 219.349 -120.461 216.97L-120.127 217.343C-117.779 215.241 -115.186 213.151 -112.352 211.077L-112.647 210.673C-110.057 208.777 -107.268 206.895 -104.286 205.026L-104.02 205.45C-101.255 203.718 -98.3222 201.997 -95.2236 200.289L-95.465 199.851C-92.6392 198.293 -89.6771 196.746 -86.5812 195.209L-86.3589 195.657C-83.4474 194.213 -80.4167 192.777 -77.2688 191.352L-77.4751 190.896C-74.4521 189.527 -71.3218 188.168 -68.0859 186.818L-67.8934 187.279C-64.9077 186.034 -61.8318 184.796 -58.6669 183.567L-58.848 183.101C-55.7197 181.886 -52.5049 180.68 -49.2051 179.481L-49.0344 179.951C-45.9929 178.847 -42.8789 177.75 -39.6934 176.66L-39.8552 176.187C-36.6756 175.099 -33.4251 174.019 -30.1046 172.946L-29.9509 173.422C-26.8518 172.42 -23.6916 171.425 -20.4712 170.437L-20.6179 169.959C-17.419 168.978 -14.161 168.003 -10.8445 167.035L-10.7044 167.515C-7.54004 166.591 -4.32242 165.674 -1.05226 164.763L-1.18646 164.281C2.01266 163.39 5.26196 162.504 8.56075 161.625L8.6895 162.108C11.9269 161.245 15.2121 160.389 18.5444 159.538L18.4207 159.053C21.609 158.239 24.8403 157.431 28.1141 156.628L28.2332 157.113C31.5055 156.311 34.8203 155.514 38.177 154.723L38.0623 154.236C41.278 153.478 44.532 152.726 47.824 151.978L47.9346 152.466C51.1788 151.729 54.4597 150.998 57.7771 150.272L57.6702 149.784C60.977 149.06 64.3199 148.342 67.6984 147.629L67.8016 148.118C71.0164 147.439 74.2635 146.766 77.5424 146.097L77.4425 145.607C80.7225 144.938 84.0345 144.274 87.3778 143.615L87.4746 144.105C90.7797 143.454 94.1156 142.807 97.4819 142.165L97.3883 141.674C100.632 141.056 103.903 140.442 107.203 139.833L107.293 140.324C110.592 139.716 113.918 139.111 117.272 138.512L117.184 138.019C120.501 137.426 123.844 136.838 127.214 136.254L127.299 136.747C130.558 136.182 133.841 135.622 137.148 135.067L137.065 134.574C140.373 134.018 143.706 133.467 147.063 132.92L147.143 133.413C150.48 132.87 153.84 132.33 157.224 131.796L157.146 131.302C160.412 130.786 163.701 130.274 167.011 129.766L167.087 130.26C170.396 129.753 173.727 129.249 177.079 128.75L177.006 128.255C180.359 127.756 183.733 127.261 187.129 126.77L187.201 127.265C190.481 126.791 193.78 126.321 197.1 125.855L197.03 125.36C200.337 124.896 203.664 124.435 207.009 123.979L207.077 124.475C210.422 124.019 213.786 123.567 217.168 123.119L217.103 122.623C220.424 122.183 223.763 121.748 227.12 121.316L227.184 121.812C230.484 121.387 233.802 120.967 237.137 120.55L237.075 120.054C240.41 119.637 243.763 119.224 247.132 118.815L247.193 119.312C250.558 118.903 253.94 118.499 257.338 118.098L257.28 117.602C260.573 117.214 263.881 116.829 267.205 116.449L267.262 116.946C270.586 116.565 273.924 116.188 277.279 115.816L277.223 115.319C280.578 114.946 283.948 114.577 287.333 114.211L287.386 114.708C290.728 114.348 294.084 113.991 297.454 113.638L297.402 113.14C300.714 112.793 304.04 112.45 307.379 112.11L307.43 112.608C310.769 112.268 314.122 111.932 317.489 111.6L317.44 111.102C320.807 110.77 324.187 110.441 327.582 110.116L327.629 110.614C330.956 110.296 334.297 109.981 337.649 109.669L337.603 109.172C340.928 108.863 344.266 108.558 347.616 108.256L347.661 108.754C351.01 108.453 354.372 108.155 357.746 107.86L357.703 107.362C361.077 107.068 364.464 106.777 367.862 106.49L367.904 106.988C371.226 106.708 374.559 106.431 377.903 106.157L377.862 105.659C381.196 105.386 384.541 105.117 387.897 104.851L387.937 105.35C391.293 105.084 394.659 104.822 398.037 104.563L397.999 104.065C401.377 103.806 404.766 103.551 408.166 103.299L408.203 103.798C411.525 103.552 414.858 103.31 418.201 103.071L418.166 102.572C421.505 102.333 424.854 102.098 428.214 101.866L428.248 102.365C431.607 102.133 434.976 101.905 438.354 101.68L438.321 101.181C441.7 100.956 445.089 100.735 448.488 100.517L448.52 101.016C451.849 100.803 455.187 100.593 458.535 100.386L458.504 99.8867C461.846 99.6804 465.197 99.4774 468.557 99.2778L468.587 99.7769C471.947 99.5773 475.316 99.3811 478.693 99.1884L478.665 98.6892C482.043 98.4964 485.43 98.3071 488.826 98.1211L488.853 98.6204C492.192 98.4375 495.54 98.258 498.897 98.0819L498.871 97.5826C502.214 97.4071 505.565 97.2349 508.925 97.0661L508.95 97.5655C512.309 97.3967 515.677 97.2313 519.052 97.0692L519.028 96.5698C522.404 96.4077 525.787 96.249 529.179 96.0937L529.202 96.5932C532.555 96.4396 535.915 96.2894 539.283 96.1425L539.261 95.643C542.604 95.4972 545.955 95.3547 549.313 95.2155L549.334 95.7151C552.691 95.5759 556.056 95.44 559.428 95.3075L559.409 94.8078C562.781 94.6753 566.161 94.546 569.548 94.4202L569.566 94.9198C572.934 94.7946 576.308 94.6728 579.69 94.5543L579.672 94.0546C583.015 93.9374 586.364 93.8235 589.719 93.7129L589.736 94.2126C593.091 94.102 596.453 93.9947 599.821 93.8907L599.806 93.3909C603.175 93.2869 606.55 93.1861 609.932 93.0887L609.946 93.5885C613.327 93.4911 616.715 93.397 620.109 93.3062L620.096 92.8064C623.438 92.717 626.787 92.6308 630.142 92.5479L630.154 93.0477C633.507 92.9649 636.865 92.8853 640.23 92.8089L640.218 92.3091C643.583 92.2327 646.954 92.1596 650.33 92.0898L650.341 92.5897C653.717 92.5199 657.099 92.4534 660.486 92.3902L660.477 91.8903C663.838 91.8276 667.205 91.7682 670.578 91.712L670.586 92.2119C673.936 92.1561 677.291 92.1035 680.652 92.0542L680.644 91.5543C684.005 91.5049 687.371 91.4589 690.742 91.4161L690.749 91.916C694.12 91.8732 697.496 91.8337 700.877 91.7974L700.872 91.2974C704.251 91.2612 707.635 91.2282 711.025 91.1985L711.029 91.6985C714.376 91.6692 717.728 91.6432 721.085 91.6203L721.081 91.1203C724.438 91.0975 727.8 91.0779 731.166 91.0615L731.169 91.5615C734.535 91.5451 737.906 91.532 741.281 91.5222L741.279 91.0222C744.655 91.0123 748.035 91.0058 751.42 91.0025L751.42 91.5025C753.112 91.5008 754.806 91.5 756.5 91.5C758.194 91.5 759.887 91.5008 761.579 91.5025L761.58 91.0025C764.964 91.0058 768.344 91.0123 771.72 91.0222L771.718 91.5222C775.094 91.532 778.464 91.5451 781.83 91.5615L781.833 91.0615C785.199 91.0779 788.561 91.0975 791.918 91.1203L791.915 91.6203C795.271 91.6432 798.623 91.6692 801.97 91.6985L801.974 91.1985C805.364 91.2282 808.748 91.2612 812.128 91.2974L812.122 91.7974C815.503 91.8336 818.88 91.8732 822.251 91.916L822.257 91.416C825.628 91.4589 828.994 91.5049 832.355 91.5543L832.348 92.0542C835.708 92.1035 839.063 92.1561 842.413 92.2119L842.422 91.712C845.794 91.7682 849.161 91.8276 852.523 91.8903L852.513 92.3902C855.901 92.4534 859.283 92.5199 862.659 92.5897L862.669 92.0898C866.046 92.1596 869.416 92.2327 872.781 92.309L872.77 92.8089C876.134 92.8853 879.493 92.9649 882.845 93.0477L882.858 92.5479C886.212 92.6308 889.561 92.717 892.904 92.8063L892.89 93.3062C896.284 93.3969 899.672 93.4911 903.053 93.5885L903.068 93.0887C906.45 93.1861 909.825 93.2869 913.194 93.3909L913.178 93.8907C916.547 93.9947 919.908 94.102 923.264 94.2126L923.28 93.7129C926.636 93.8235 929.985 93.9374 933.327 94.0546L933.31 94.5542C936.691 94.6728 940.066 94.7946 943.433 94.9198L943.452 94.4201C946.839 94.546 950.218 94.6753 953.591 94.8078L953.571 95.3074C956.943 95.44 960.308 95.5759 963.666 95.7151L963.687 95.2155C967.045 95.3547 970.395 95.4972 973.738 95.643L973.717 96.1425C977.085 96.2894 980.445 96.4396 983.798 96.5932L983.821 96.0937C987.212 96.249 990.596 96.4077 993.972 96.5698L993.948 97.0692C997.323 97.2313 1000.69 97.3967 1004.05 97.5655L1004.07 97.0661C1007.43 97.2349 1010.79 97.4071 1014.13 97.5825L1014.1 98.0818C1017.46 98.258 1020.81 98.4375 1024.15 98.6204L1024.17 98.1211C1027.57 98.307 1030.96 98.4964 1034.33 98.6892L1034.31 99.1884C1037.68 99.3811 1041.05 99.5773 1044.41 99.7769L1044.44 99.2778C1047.8 99.4774 1051.15 99.6804 1054.5 99.8867L1054.46 100.386C1057.81 100.592 1061.15 100.803 1064.48 101.016L1064.51 100.517C1067.91 100.735 1071.3 100.956 1074.68 101.181L1074.65 101.68C1078.02 101.905 1081.39 102.133 1084.75 102.365L1084.79 101.866C1088.15 102.098 1091.49 102.333 1094.83 102.572L1094.8 103.071C1098.14 103.31 1101.47 103.552 1104.8 103.798L1104.83 103.299C1108.23 103.551 1111.62 103.806 1115 104.065L1114.96 104.563C1118.34 104.822 1121.71 105.084 1125.06 105.35L1125.1 104.851C1128.46 105.117 1131.8 105.386 1135.14 105.659L1135.1 106.157C1138.44 106.431 1141.77 106.708 1145.1 106.988L1145.14 106.49C1148.54 106.777 1151.92 107.068 1155.3 107.362L1155.25 107.86C1158.63 108.155 1161.99 108.453 1165.34 108.754L1165.38 108.256C1168.73 108.558 1172.07 108.863 1175.4 109.172L1175.35 109.669C1178.7 109.981 1182.04 110.296 1185.37 110.614L1185.42 110.116C1188.81 110.441 1192.19 110.77 1195.56 111.102L1195.51 111.6C1198.88 111.932 1202.23 112.268 1205.57 112.608L1205.62 112.11C1208.96 112.45 1212.29 112.793 1215.6 113.14L1215.55 113.638C1218.92 113.991 1222.27 114.348 1225.61 114.708L1225.67 114.211C1229.05 114.576 1232.42 114.946 1235.78 115.319L1235.72 115.816C1239.08 116.188 1242.41 116.565 1245.74 116.946L1245.79 116.449C1249.12 116.829 1252.43 117.214 1255.72 117.602L1255.66 118.098C1259.06 118.499 1262.44 118.903 1265.81 119.312L1265.87 118.815C1269.24 119.224 1272.59 119.637 1275.92 120.054L1275.86 120.55C1279.2 120.967 1282.52 121.387 1285.82 121.812L1285.88 121.316C1289.24 121.748 1292.58 122.183 1295.9 122.623L1295.83 123.119C1299.21 123.567 1302.58 124.019 1305.92 124.475L1305.99 123.979C1309.34 124.435 1312.66 124.896 1315.97 125.36L1315.9 125.855C1319.22 126.321 1322.52 126.791 1325.8 127.265L1325.87 126.77C1329.27 127.261 1332.64 127.756 1335.99 128.255L1335.92 128.75C1339.27 129.249 1342.6 129.753 1345.91 130.26L1345.99 129.766C1349.3 130.274 1352.59 130.786 1355.85 131.302L1355.78 131.796C1359.16 132.33 1362.52 132.87 1365.86 133.413L1365.94 132.92C1369.29 133.466 1372.63 134.018 1375.93 134.574L1375.85 135.067C1379.16 135.622 1382.44 136.182 1385.7 136.747L1385.79 136.254C1389.16 136.838 1392.5 137.426 1395.82 138.019L1395.73 138.511C1399.08 139.111 1402.41 139.715 1405.71 140.324L1405.8 139.833C1409.1 140.442 1412.37 141.056 1415.61 141.674L1415.52 142.165C1418.88 142.807 1422.22 143.454 1425.53 144.105L1425.62 143.615C1428.97 144.274 1432.28 144.938 1435.56 145.607L1435.46 146.097C1438.74 146.766 1441.98 147.439 1445.2 148.118L1445.3 147.629C1448.68 148.342 1452.02 149.06 1455.33 149.784L1455.22 150.272C1458.54 150.998 1461.82 151.729 1465.06 152.466L1465.18 151.978C1468.47 152.725 1471.72 153.478 1474.94 154.236L1474.82 154.723C1478.18 155.514 1481.49 156.311 1484.77 157.113L1484.89 156.628C1488.16 157.431 1491.39 158.239 1494.58 159.053L1494.46 159.538C1497.79 160.388 1501.07 161.245 1504.31 162.108L1504.44 161.625C1507.74 162.504 1510.99 163.389 1514.19 164.281L1514.05 164.762C1517.32 165.674 1520.54 166.591 1523.7 167.515L1523.84 167.035C1527.16 168.003 1530.42 168.978 1533.62 169.959L1533.47 170.437C1536.69 171.425 1539.85 172.42 1542.95 173.421L1543.1 172.946C1546.42 174.018 1549.68 175.099 1552.85 176.187L1552.69 176.66C1555.88 177.75 1558.99 178.847 1562.03 179.951L1562.2 179.481C1565.5 180.679 1568.72 181.886 1571.85 183.101L1571.67 183.567C1574.83 184.796 1577.91 186.034 1580.89 187.279L1581.09 186.818C1584.32 188.168 1587.45 189.527 1590.47 190.896L1590.27 191.352C1593.42 192.777 1596.45 194.212 1599.36 195.657L1599.58 195.209C1602.68 196.745 1605.64 198.293 1608.46 199.851L1608.22 200.289C1611.32 201.997 1614.25 203.717 1617.02 205.449L1617.29 205.026C1620.27 206.894 1623.06 208.777 1625.65 210.673L1625.35 211.076C1628.19 213.151 1630.78 215.24 1633.13 217.342L1633.46 216.97C1636.12 219.349 1638.46 221.747 1640.49 224.163L1640.11 224.485C1642.41 227.219 1644.29 229.971 1645.75 232.737L1646.19 232.504Z" stroke="url(#paint0_linear_243_29)" stroke-dasharray="10 10"/>
<path d="M1641.27 126.712C1644.36 129.151 1646.55 131.619 1647.79 134.114L1647.34 134.336C1648.11 135.893 1648.5 137.447 1648.5 139C1648.5 140.553 1648.11 142.107 1647.34 143.664L1647.79 143.887C1646.55 146.381 1644.36 148.85 1641.27 151.288L1640.96 150.895C1638.65 152.714 1635.83 154.522 1632.49 156.317L1632.73 156.757C1630.02 158.215 1626.99 159.66 1623.64 161.092L1623.44 160.632C1620.57 161.86 1617.46 163.079 1614.11 164.288L1614.28 164.758C1611.27 165.849 1608.07 166.931 1604.69 168.004L1604.54 167.528C1601.41 168.52 1598.13 169.505 1594.69 170.482L1594.83 170.963C1591.77 171.833 1588.59 172.697 1585.29 173.554L1585.17 173.07C1581.99 173.896 1578.7 174.716 1575.31 175.53L1575.42 176.016C1572.25 176.777 1568.98 177.533 1565.61 178.283L1565.5 177.795C1562.3 178.51 1559.01 179.219 1555.64 179.923L1555.74 180.413C1552.52 181.087 1549.21 181.757 1545.83 182.423L1545.73 181.932C1542.5 182.568 1539.2 183.2 1535.83 183.828L1535.92 184.319C1532.67 184.923 1529.37 185.523 1526 186.119L1525.91 185.626C1522.63 186.206 1519.3 186.781 1515.9 187.352L1515.99 187.845C1512.75 188.391 1509.45 188.932 1506.11 189.47L1506.03 188.976C1502.7 189.512 1499.31 190.045 1495.87 190.573L1495.95 191.067C1492.73 191.563 1489.46 192.055 1486.14 192.544L1486.07 192.049C1482.76 192.538 1479.4 193.023 1476 193.505L1476.07 194C1472.78 194.466 1469.45 194.929 1466.08 195.388L1466.02 194.893C1462.74 195.34 1459.42 195.783 1456.07 196.224L1456.13 196.72C1452.78 197.16 1449.39 197.597 1445.96 198.031L1445.9 197.535C1442.64 197.948 1439.34 198.358 1436.02 198.764L1436.08 199.261C1432.77 199.665 1429.42 200.067 1426.05 200.465L1425.99 199.969C1422.63 200.365 1419.25 200.759 1415.83 201.149L1415.88 201.646C1412.61 202.019 1409.32 202.389 1405.99 202.756L1405.94 202.259C1402.61 202.627 1399.26 202.991 1395.88 203.353L1395.93 203.85C1392.57 204.209 1389.19 204.566 1385.78 204.919L1385.73 204.422C1382.45 204.761 1379.14 205.099 1375.81 205.433L1375.86 205.93C1372.53 206.265 1369.18 206.597 1365.8 206.926L1365.75 206.428C1362.38 206.756 1358.98 207.082 1355.57 207.405L1355.61 207.902C1352.33 208.212 1349.02 208.52 1345.69 208.825L1345.65 208.327C1342.32 208.632 1338.97 208.935 1335.6 209.234L1335.64 209.732C1332.27 210.032 1328.88 210.33 1325.46 210.625L1325.42 210.126C1322.11 210.411 1318.79 210.694 1315.45 210.974L1315.49 211.473C1312.17 211.751 1308.83 212.027 1305.46 212.301L1305.42 211.802C1302.06 212.076 1298.68 212.347 1295.28 212.616L1295.32 213.114C1291.98 213.378 1288.63 213.64 1285.25 213.899L1285.21 213.4C1281.9 213.655 1278.57 213.906 1275.22 214.156L1275.26 214.655C1271.91 214.904 1268.54 215.152 1265.16 215.397L1265.12 214.898C1261.74 215.143 1258.35 215.385 1254.93 215.625L1254.97 216.124C1251.66 216.356 1248.34 216.586 1245.01 216.814L1244.98 216.315C1241.64 216.543 1238.29 216.768 1234.93 216.991L1234.96 217.49C1231.6 217.713 1228.22 217.934 1224.82 218.153L1224.79 217.654C1221.44 217.87 1218.07 218.083 1214.69 218.294L1214.72 218.793C1211.4 219.001 1208.07 219.206 1204.72 219.409L1204.69 218.91C1201.34 219.113 1197.98 219.314 1194.6 219.513L1194.63 220.012C1191.26 220.21 1187.87 220.407 1184.47 220.601L1184.44 220.102C1181.1 220.292 1177.76 220.48 1174.4 220.666L1174.42 221.165C1171.09 221.35 1167.75 221.532 1164.39 221.712L1164.37 221.213C1161.01 221.393 1157.64 221.571 1154.26 221.747L1154.29 222.246C1150.91 222.422 1147.52 222.595 1144.11 222.767L1144.09 222.267C1140.76 222.435 1137.42 222.6 1134.07 222.764L1134.1 223.263C1130.76 223.426 1127.41 223.586 1124.05 223.745L1124.03 223.246C1120.67 223.404 1117.3 223.561 1113.91 223.715L1113.94 224.214C1110.55 224.369 1107.16 224.521 1103.76 224.671L1103.73 224.172C1100.41 224.318 1097.07 224.463 1093.73 224.605L1093.75 225.105C1090.41 225.247 1087.06 225.388 1083.69 225.526L1083.67 225.026C1080.31 225.164 1076.94 225.301 1073.56 225.435L1073.58 225.934C1070.2 226.068 1066.8 226.201 1063.4 226.331L1063.38 225.831C1060.05 225.958 1056.72 226.083 1053.37 226.207L1053.39 226.706C1050.04 226.829 1046.69 226.95 1043.33 227.069L1043.31 226.57C1039.95 226.689 1036.58 226.805 1033.2 226.92L1033.22 227.42C1029.84 227.535 1026.45 227.648 1023.05 227.759L1023.03 227.259C1019.7 227.368 1016.35 227.475 1012.99 227.58L1013.01 228.08C1009.66 228.184 1006.31 228.287 1002.95 228.387L1002.94 227.888C999.577 227.988 996.209 228.087 992.833 228.183L992.848 228.683C989.472 228.78 986.088 228.874 982.696 228.967L982.682 228.467C979.33 228.558 975.971 228.648 972.604 228.735L972.617 229.235C969.274 229.322 965.924 229.407 962.567 229.49L962.555 228.99C959.198 229.073 955.833 229.154 952.462 229.233L952.473 229.733C949.101 229.812 945.722 229.889 942.336 229.964L942.325 229.464C938.959 229.538 935.586 229.611 932.206 229.681L932.216 230.181C928.875 230.251 925.527 230.319 922.173 230.385L922.163 229.885C918.809 229.951 915.449 230.015 912.082 230.077L912.091 230.577C908.723 230.638 905.349 230.699 901.969 230.757L901.961 230.257C898.581 230.315 895.194 230.371 891.801 230.425L891.809 230.925C888.469 230.978 885.123 231.029 881.771 231.079L881.763 230.579C878.412 230.628 875.056 230.675 871.693 230.721L871.7 231.221C868.337 231.266 864.968 231.31 861.594 231.351L861.588 230.851C858.213 230.893 854.833 230.932 851.448 230.97L851.453 231.47C848.094 231.507 844.729 231.543 841.359 231.576L841.354 231.076C838.007 231.109 834.654 231.141 831.296 231.17L831.3 231.67C827.942 231.699 824.578 231.727 821.209 231.752L821.205 231.252C817.836 231.278 814.462 231.301 811.083 231.323L811.086 231.823C807.71 231.845 804.328 231.864 800.941 231.882L800.938 231.382C797.594 231.399 794.244 231.415 790.89 231.428L790.892 231.928C787.537 231.942 784.178 231.954 780.814 231.963L780.813 231.463C777.449 231.473 774.081 231.481 770.708 231.487L770.709 231.987C767.336 231.993 763.958 231.997 760.576 231.999L760.576 231.499C758.885 231.5 757.193 231.5 755.5 231.5C753.807 231.5 752.114 231.5 750.423 231.499L750.423 231.999C747.041 231.997 743.663 231.993 740.29 231.987L740.291 231.487C736.918 231.481 733.55 231.473 730.186 231.463L730.185 231.963C726.821 231.954 723.462 231.942 720.108 231.928L720.11 231.428C716.755 231.415 713.406 231.399 710.061 231.382L710.059 231.882C706.672 231.864 703.29 231.845 699.913 231.823L699.916 231.323C696.537 231.301 693.163 231.278 689.794 231.252L689.791 231.752C686.422 231.727 683.058 231.699 679.7 231.67L679.704 231.17C676.346 231.141 672.993 231.109 669.645 231.076L669.64 231.576C666.27 231.543 662.906 231.507 659.546 231.47L659.552 230.97C656.166 230.932 652.786 230.893 649.412 230.851L649.406 231.351C646.031 231.31 642.663 231.266 639.3 231.221L639.307 230.721C635.944 230.675 632.587 230.628 629.236 230.579L629.229 231.079C625.877 231.029 622.531 230.978 619.19 230.925L619.198 230.425C615.806 230.371 612.419 230.315 609.039 230.257L609.03 230.757C605.65 230.699 602.276 230.638 598.909 230.577L598.918 230.077C595.551 230.015 592.19 229.951 588.836 229.885L588.826 230.385C585.472 230.319 582.125 230.251 578.784 230.181L578.794 229.681C575.414 229.611 572.041 229.538 568.675 229.464L568.664 229.964C565.277 229.889 561.898 229.812 558.527 229.733L558.538 229.233C555.167 229.154 551.802 229.073 548.445 228.99L548.433 229.49C545.075 229.407 541.725 229.322 538.383 229.235L538.396 228.735C535.029 228.648 531.669 228.558 528.317 228.467L528.304 228.967C524.912 228.874 521.528 228.78 518.152 228.683L518.166 228.183C514.79 228.087 511.423 227.988 508.063 227.888L508.048 228.387C504.688 228.287 501.336 228.184 497.993 228.08L498.008 227.58C494.652 227.475 491.305 227.368 487.965 227.259L487.949 227.759C484.552 227.648 481.163 227.535 477.784 227.42L477.801 226.92C474.422 226.805 471.051 226.689 467.69 226.57L467.672 227.069C464.311 226.95 460.958 226.829 457.615 226.706L457.633 226.207C454.285 226.083 450.945 225.958 447.615 225.831L447.596 226.331C444.195 226.201 440.803 226.068 437.422 225.934L437.441 225.435C434.06 225.301 430.688 225.164 427.326 225.026L427.306 225.526C423.944 225.388 420.592 225.247 417.25 225.105L417.271 224.605C413.926 224.463 410.591 224.318 407.266 224.172L407.244 224.671C403.839 224.521 400.446 224.369 397.064 224.214L397.086 223.715C393.704 223.561 390.333 223.404 386.973 223.246L386.949 223.745C383.589 223.586 380.24 223.426 376.902 223.263L376.926 222.764C373.577 222.6 370.24 222.435 366.914 222.267L366.889 222.767C363.484 222.595 360.092 222.422 356.711 222.246L356.737 221.747C353.357 221.571 349.989 221.393 346.633 221.213L346.606 221.712C343.25 221.532 339.907 221.35 336.576 221.165L336.603 220.666C333.243 220.48 329.896 220.292 326.561 220.102L326.533 220.601C323.131 220.407 319.742 220.21 316.367 220.012L316.396 219.513C313.021 219.314 309.66 219.113 306.313 218.91L306.282 219.409C302.935 219.206 299.601 219.001 296.281 218.793L296.312 218.294C292.931 218.083 289.564 217.87 286.212 217.654L286.179 218.153C282.784 217.934 279.404 217.713 276.039 217.49L276.072 216.991C272.707 216.768 269.358 216.543 266.024 216.315L265.99 216.814C262.656 216.586 259.337 216.356 256.034 216.124L256.069 215.625C252.655 215.385 249.257 215.143 245.876 214.898L245.84 215.397C242.457 215.152 239.092 214.904 235.743 214.655L235.781 214.156C232.433 213.907 229.102 213.655 225.789 213.4L225.751 213.899C222.375 213.64 219.016 213.378 215.676 213.114L215.716 212.616C212.317 212.347 208.936 212.076 205.576 211.802L205.535 212.301C202.174 212.027 198.832 211.751 195.51 211.473L195.551 210.974C192.208 210.694 188.885 210.411 185.582 210.126L185.539 210.625C182.124 210.33 178.73 210.032 175.358 209.732L175.402 209.234C172.03 208.935 168.68 208.632 165.352 208.327L165.306 208.825C161.978 208.52 158.671 208.212 155.387 207.902L155.434 207.405C152.016 207.082 148.622 206.756 145.252 206.428L145.203 206.926C141.824 206.597 138.469 206.265 135.138 205.93L135.188 205.433C131.859 205.099 128.554 204.761 125.274 204.422L125.223 204.919C121.81 204.566 118.425 204.209 115.067 203.85L115.12 203.353C111.739 202.991 108.386 202.627 105.062 202.259L105.007 202.756C101.682 202.389 98.3853 202.019 95.1174 201.646L95.1741 201.149C91.7538 200.759 88.3651 200.365 85.0083 199.969L84.9497 200.465C81.5751 200.067 78.2328 199.665 74.9232 199.261L74.9839 198.764C71.6568 198.358 68.3627 197.948 65.1022 197.535L65.0394 198.031C61.6108 197.597 58.2192 197.16 54.8651 196.72L54.9302 196.224C51.5769 195.783 48.2611 195.34 44.9834 194.893L44.9159 195.388C41.5455 194.929 38.2153 194.466 34.9258 194L34.996 193.505C31.5963 193.023 28.2401 192.538 24.9281 192.049L24.8551 192.544C21.5421 192.055 18.2733 191.563 15.0493 191.067L15.1253 190.573C11.6894 190.044 8.30438 189.512 4.97101 188.976L4.89163 189.47C1.54692 188.932 -1.74588 188.391 -4.98605 187.845L-4.90306 187.352C-8.29671 186.781 -11.6325 186.206 -14.9096 185.626L-14.9967 186.119C-18.3663 185.523 -21.674 184.923 -24.9189 184.319L-24.8273 183.827C-28.1976 183.2 -31.4999 182.568 -34.7332 181.932L-34.8298 182.423C-38.2103 181.757 -41.5155 181.087 -44.7444 180.413L-44.6421 179.923C-48.0129 179.219 -51.3002 178.51 -54.5026 177.795L-54.6115 178.283C-57.9757 177.533 -61.2466 176.777 -64.4225 176.016L-64.306 175.53C-67.7031 174.716 -70.9912 173.896 -74.1684 173.07L-74.2942 173.554C-77.5928 172.696 -80.7723 171.833 -83.8306 170.963L-83.6938 170.482C-87.1305 169.505 -90.4133 168.52 -93.5391 167.528L-93.6904 168.004C-97.0726 166.931 -100.272 165.849 -103.285 164.758L-103.115 164.288C-106.458 163.079 -109.568 161.86 -112.442 160.632L-112.639 161.092C-115.991 159.659 -119.025 158.214 -121.732 156.757L-121.495 156.317C-124.829 154.522 -127.655 152.713 -129.961 150.895L-130.27 151.288C-133.363 148.849 -135.547 146.381 -136.788 143.886L-136.34 143.664C-137.115 142.107 -137.5 140.553 -137.5 139C-137.5 137.447 -137.114 135.893 -136.34 134.336L-136.788 134.113C-135.547 131.619 -133.362 129.15 -130.27 126.712L-129.96 127.105C-127.654 125.286 -124.828 123.478 -121.494 121.683L-121.731 121.243C-119.024 119.785 -115.99 118.34 -112.638 116.908L-112.442 117.368C-109.568 116.14 -106.457 114.921 -103.115 113.712L-103.285 113.242C-100.272 112.151 -97.0721 111.069 -93.6898 109.996L-93.5386 110.472C-90.4127 109.48 -87.13 108.495 -83.6933 107.518L-83.83 107.037C-80.7718 106.167 -77.5923 105.303 -74.2937 104.446L-74.1679 104.93C-70.9907 104.104 -67.7027 103.284 -64.3055 102.47L-64.4221 101.984C-61.2461 101.223 -57.9753 100.467 -54.611 99.7165L-54.5022 100.205C-51.2998 99.4903 -48.0125 98.781 -44.6417 98.0767L-44.744 97.5872C-41.5151 96.9126 -38.2099 96.2426 -34.8294 95.5774L-34.7328 96.068C-31.4995 95.4318 -28.1973 94.7999 -24.827 94.1725L-24.9185 93.6809C-21.6737 93.0769 -18.366 92.4769 -14.9963 91.8813L-14.9093 92.3736C-11.6322 91.7943 -8.29639 91.219 -4.90276 90.6478L-4.98575 90.1548C-1.74559 89.6094 1.54723 89.0678 4.89192 88.53L4.9713 89.0237C8.30466 88.4877 11.6897 87.9555 15.1255 87.4272L15.0495 86.933C18.2736 86.4372 21.5424 85.9449 24.8554 85.456L24.9284 85.9507C28.2403 85.4619 31.5965 84.9767 34.9962 84.4949L34.9261 83.9999C38.2155 83.5338 41.5457 83.071 44.9161 82.6116L44.9836 83.107C48.2613 82.6602 51.5771 82.2166 54.9304 81.7762L54.8653 81.2804C58.2194 80.84 61.611 80.4027 65.0396 79.9687L65.1024 80.4648C68.3629 80.0521 71.6569 79.6424 74.984 79.2357L74.9234 78.7394C78.2329 78.3349 81.5752 77.9333 84.9498 77.5348L85.0084 78.0313C88.3652 77.6349 91.754 77.2415 95.1743 76.8511L95.1176 76.3543C98.3854 75.9813 101.682 75.6111 105.007 75.2437L105.062 75.7407C108.387 75.3733 111.74 75.0088 115.12 74.6471L115.067 74.15C118.425 73.7908 121.81 73.4345 125.223 73.081L125.274 73.5783C128.554 73.2386 131.859 72.9015 135.188 72.5671L135.138 72.0696C138.469 71.7351 141.824 71.4033 145.203 71.0742L145.252 71.5718C148.622 71.2437 152.016 70.9182 155.434 70.5955L155.387 70.0977C158.671 69.7876 161.978 69.48 165.306 69.175L165.352 69.6729C168.68 69.3679 172.03 69.0655 175.402 68.7656L175.358 68.2675C178.73 67.9676 182.124 67.6703 185.539 67.3755L185.582 67.8736C188.885 67.5885 192.208 67.3059 195.551 67.0257L195.51 66.5274C198.832 66.249 202.174 65.9729 205.535 65.6993L205.576 66.1977C208.936 65.9241 212.316 65.653 215.716 65.3844L215.676 64.8859C219.016 64.6219 222.374 64.3604 225.751 64.1012L225.789 64.5998C229.102 64.3455 232.433 64.0935 235.78 63.8439L235.743 63.3453C239.091 63.0956 242.457 62.8483 245.839 62.6034L245.875 63.1021C249.256 62.8573 252.654 62.6148 256.069 62.3748L256.034 61.876C259.337 61.6438 262.656 61.4139 265.99 61.1862L266.024 61.685C269.358 61.4574 272.707 61.2319 276.072 61.0088L276.039 60.5099C279.403 60.2868 282.784 60.0659 286.179 59.8473L286.211 60.3463C289.563 60.1305 292.93 59.9169 296.312 59.7057L296.281 59.2066C299.6 58.9992 302.934 58.7939 306.282 58.5909L306.312 59.09C309.66 58.8869 313.021 58.6861 316.396 58.4875L316.366 57.9884C319.742 57.7897 323.13 57.5933 326.533 57.3991L326.561 57.8983C329.895 57.708 333.243 57.5199 336.603 57.3339L336.575 56.8346C339.906 56.6503 343.25 56.468 346.606 56.2879L346.633 56.7872C349.988 56.6071 353.356 56.4292 356.737 56.2534L356.711 55.7541C360.091 55.5783 363.484 55.4047 366.889 55.2332L366.914 55.7326C370.24 55.5651 373.577 55.3997 376.926 55.2365L376.902 54.7371C380.24 54.5743 383.589 54.4136 386.949 54.255L386.973 54.7545C390.333 54.5959 393.704 54.4395 397.086 54.2851L397.063 53.7856C400.446 53.6313 403.839 53.479 407.243 53.3289L407.266 53.8284C410.59 53.6818 413.926 53.5373 417.271 53.3947L417.25 52.8952C420.592 52.7528 423.944 52.6125 427.306 52.4742L427.326 52.9738C430.688 52.8355 434.06 52.6993 437.441 52.5652L437.422 52.0656C440.803 51.9315 444.195 51.7994 447.596 51.6695L447.615 52.1691C450.945 52.0419 454.285 51.9167 457.633 51.7935L457.615 51.2938C460.958 51.1708 464.311 51.0497 467.672 50.9308L467.69 51.4304C471.052 51.3115 474.422 51.1945 477.801 51.0796L477.784 50.5799C481.164 50.465 484.552 50.3521 487.949 50.2413L487.965 50.741C491.305 50.6321 494.653 50.5251 498.009 50.4201L497.993 49.9204C501.337 49.8158 504.688 49.7132 508.048 49.6127L508.063 50.1124C511.423 50.0119 514.791 49.9133 518.166 49.8167L518.152 49.3169C521.528 49.2203 524.912 49.1258 528.304 49.0332L528.318 49.533C531.67 49.4416 535.029 49.3521 538.396 49.2646L538.383 48.7648C541.726 48.6779 545.076 48.593 548.433 48.5101L548.445 49.01C551.802 48.9271 555.167 48.8461 558.538 48.7672L558.527 48.2673C561.899 48.1883 565.278 48.1113 568.664 48.0364L568.675 48.5362C572.041 48.4617 575.414 48.3891 578.794 48.3186L578.784 47.8187C582.125 47.7489 585.472 47.6811 588.827 47.6152L588.837 48.1151C592.191 48.0492 595.551 47.9853 598.918 47.9234L598.909 47.4235C602.277 47.3615 605.651 47.3015 609.031 47.2435L609.039 47.7434C612.419 47.6854 615.806 47.6294 619.199 47.5753L619.191 47.0754C622.531 47.0221 625.877 46.9708 629.229 46.9215L629.237 47.4214C632.588 47.3721 635.944 47.3247 639.307 47.2792L639.3 46.7793C642.663 46.7338 646.032 46.6903 649.406 46.6488L649.412 47.1487C652.787 47.1072 656.167 47.0676 659.552 47.03L659.547 46.53C662.906 46.4927 666.271 46.4573 669.641 46.4238L669.646 46.9238C672.993 46.8906 676.346 46.8593 679.704 46.8299L679.7 46.3299C683.059 46.3006 686.422 46.2731 689.791 46.2477L689.795 46.7476C693.164 46.7222 696.538 46.6986 699.917 46.677L699.914 46.177C703.29 46.1555 706.672 46.1358 710.059 46.1182L710.062 46.6182C713.406 46.6007 716.756 46.5852 720.11 46.5716L720.108 46.0716C723.463 46.058 726.822 46.0463 730.186 46.0366L730.187 46.5366C733.551 46.5269 736.919 46.5191 740.292 46.5132L740.291 46.0132C743.664 46.0073 747.042 46.0034 750.424 46.0015L750.424 46.5015C752.115 46.5005 753.807 46.5 755.5 46.5C757.193 46.5 758.886 46.5005 760.577 46.5015L760.577 46.0015C763.959 46.0034 767.337 46.0073 770.71 46.0132L770.709 46.5132C774.082 46.5191 777.45 46.5269 780.814 46.5366L780.815 46.0366C784.179 46.0463 787.538 46.058 790.892 46.0716L790.89 46.5716C794.245 46.5852 797.594 46.6007 800.939 46.6182L800.941 46.1182C804.328 46.1358 807.71 46.1555 811.087 46.177L811.084 46.677C814.463 46.6986 817.837 46.7222 821.206 46.7477L821.209 46.2477C824.578 46.2732 827.942 46.3006 831.3 46.33L831.296 46.8299C834.654 46.8593 838.007 46.8906 841.355 46.9238L841.36 46.4238C844.73 46.4573 848.094 46.4927 851.454 46.53L851.448 47.03C854.834 47.0676 858.214 47.1072 861.588 47.1487L861.594 46.6488C864.969 46.6903 868.337 46.7338 871.7 46.7793L871.693 47.2793C875.056 47.3247 878.413 47.3721 881.764 47.4214L881.771 46.9215C885.123 46.9709 888.469 47.0221 891.81 47.0754L891.802 47.5753C895.194 47.6294 898.581 47.6854 901.961 47.7434L901.97 47.2435C905.35 47.3015 908.724 47.3615 912.091 47.4235L912.082 47.9234C915.449 47.9853 918.81 48.0492 922.164 48.1151L922.174 47.6152C925.528 47.6811 928.876 47.7489 932.216 47.8187L932.206 48.3186C935.586 48.3891 938.959 48.4617 942.325 48.5363L942.336 48.0364C945.723 48.1114 949.102 48.1883 952.474 48.2673L952.462 48.7672C955.833 48.8461 959.198 48.9271 962.555 49.01L962.567 48.5101C965.925 48.593 969.275 48.6779 972.617 48.7648L972.604 49.2646C975.971 49.3521 979.331 49.4416 982.683 49.533L982.696 49.0332C986.088 49.1258 989.472 49.2203 992.848 49.3169L992.834 49.8167C996.21 49.9133 999.577 50.0119 1002.94 50.1124L1002.95 49.6127C1006.31 49.7132 1009.66 49.8158 1013.01 49.9204L1012.99 50.4201C1016.35 50.5251 1019.7 50.6321 1023.03 50.741L1023.05 50.2413C1026.45 50.3521 1029.84 50.465 1033.22 50.5799L1033.2 51.0796C1036.58 51.1945 1039.95 51.3115 1043.31 51.4305L1043.33 50.9308C1046.69 51.0498 1050.04 51.1708 1053.39 51.2938L1053.37 51.7935C1056.72 51.9167 1060.05 52.0419 1063.38 52.1691L1063.4 51.6695C1066.81 51.7994 1070.2 51.9315 1073.58 52.0656L1073.56 52.5652C1076.94 52.6993 1080.31 52.8355 1083.67 52.9738L1083.69 52.4742C1087.06 52.6125 1090.41 52.7528 1093.75 52.8952L1093.73 53.3947C1097.07 53.5373 1100.41 53.6818 1103.73 53.8284L1103.76 53.3289C1107.16 53.479 1110.55 53.6313 1113.94 53.7856L1113.91 54.2851C1117.3 54.4394 1120.67 54.5959 1124.03 54.7545L1124.05 54.255C1127.41 54.4136 1130.76 54.5743 1134.1 54.737L1134.07 55.2364C1137.42 55.3997 1140.76 55.5651 1144.09 55.7326L1144.11 55.2332C1147.52 55.4046 1150.91 55.5783 1154.29 55.7541L1154.26 56.2534C1157.64 56.4292 1161.01 56.6071 1164.37 56.7872L1164.39 56.2879C1167.75 56.468 1171.09 56.6502 1174.42 56.8346L1174.4 57.3339C1177.76 57.5198 1181.1 57.708 1184.44 57.8983L1184.47 57.3991C1187.87 57.5933 1191.26 57.7897 1194.63 57.9883L1194.6 58.4875C1197.98 58.6861 1201.34 58.8869 1204.69 59.09L1204.72 58.5909C1208.07 58.7939 1211.4 58.9992 1214.72 59.2066L1214.69 59.7056C1218.07 59.9169 1221.44 60.1305 1224.79 60.3463L1224.82 59.8473C1228.22 60.0659 1231.6 60.2867 1234.96 60.5099L1234.93 61.0088C1238.29 61.2319 1241.64 61.4573 1244.98 61.685L1245.01 61.1862C1248.34 61.4139 1251.66 61.6438 1254.97 61.876L1254.93 62.3748C1258.35 62.6148 1261.74 62.8573 1265.12 63.1021L1265.16 62.6034C1268.54 62.8483 1271.91 63.0956 1275.26 63.3453L1275.22 63.8439C1278.57 64.0935 1281.9 64.3455 1285.21 64.5997L1285.25 64.1012C1288.63 64.3604 1291.98 64.6219 1295.32 64.8859L1295.28 65.3843C1298.68 65.653 1302.06 65.9241 1305.42 66.1977L1305.46 65.6993C1308.83 65.9729 1312.17 66.249 1315.49 66.5274L1315.45 67.0257C1318.79 67.3059 1322.11 67.5885 1325.42 67.8736L1325.46 67.3755C1328.88 67.6702 1332.27 67.9676 1335.64 68.2675L1335.6 68.7656C1338.97 69.0655 1342.32 69.3679 1345.65 69.6729L1345.69 69.175C1349.02 69.48 1352.33 69.7876 1355.61 70.0977L1355.57 70.5955C1358.98 70.9182 1362.38 71.2437 1365.75 71.5718L1365.8 71.0742C1369.18 71.4033 1372.53 71.7351 1375.86 72.0696L1375.81 72.5671C1379.14 72.9015 1382.45 73.2386 1385.73 73.5783L1385.78 73.081C1389.19 73.4345 1392.58 73.7908 1395.93 74.15L1395.88 74.6472C1399.26 75.0088 1402.61 75.3733 1405.94 75.7407L1405.99 75.2437C1409.32 75.6111 1412.61 75.9813 1415.88 76.3543L1415.83 76.8511C1419.25 77.2415 1422.63 77.6349 1425.99 78.0313L1426.05 77.5348C1429.42 77.9333 1432.77 78.3349 1436.08 78.7394L1436.02 79.2357C1439.34 79.6424 1442.64 80.0521 1445.9 80.4648L1445.96 79.9688C1449.39 80.4027 1452.78 80.84 1456.13 81.2805L1456.07 81.7762C1459.42 82.2166 1462.74 82.6602 1466.02 83.107L1466.08 82.6116C1469.45 83.071 1472.78 83.5338 1476.07 83.9999L1476 84.495C1479.4 84.9767 1482.76 85.462 1486.07 85.9507L1486.14 85.4561C1489.46 85.9449 1492.73 86.4373 1495.95 86.933L1495.87 87.4272C1499.31 87.9555 1502.7 88.4877 1506.03 89.0237L1506.11 88.53C1509.45 89.0678 1512.75 89.6095 1515.99 90.1548L1515.9 90.6479C1519.3 91.2191 1522.63 91.7944 1525.91 92.3737L1526 91.8813C1529.37 92.477 1532.67 93.0769 1535.92 93.681L1535.83 94.1725C1539.2 94.8 1542.5 95.4318 1545.73 96.0681L1545.83 95.5775C1549.21 96.2427 1552.52 96.9127 1555.74 97.5873L1555.64 98.0767C1559.01 98.781 1562.3 99.4904 1565.5 100.205L1565.61 99.7166C1568.98 100.467 1572.25 101.223 1575.42 101.984L1575.31 102.47C1578.7 103.284 1581.99 104.104 1585.17 104.93L1585.29 104.446C1588.59 105.304 1591.77 106.167 1594.83 107.037L1594.69 107.518C1598.13 108.495 1601.41 109.48 1604.54 110.472L1604.69 109.996C1608.07 111.069 1611.27 112.151 1614.29 113.242L1614.12 113.712C1617.46 114.921 1620.57 116.14 1623.44 117.368L1623.64 116.908C1626.99 118.341 1630.02 119.786 1632.73 121.243L1632.49 121.683C1635.83 123.478 1638.65 125.287 1640.96 127.105L1641.27 126.712Z" stroke="url(#paint1_linear_243_29)" stroke-dasharray="10 10"/>
<path d="M1637.95 38.4283C1642.06 39.7053 1645.15 41.0002 1647.17 42.3104L1646.9 42.7299C1648.74 43.9295 1649.5 45.0297 1649.5 46C1649.5 46.9704 1648.74 48.0706 1646.9 49.2703L1647.17 49.6898C1645.15 51 1642.06 52.2948 1637.95 53.5718L1637.8 53.0944C1635.07 53.9438 1631.88 54.7869 1628.24 55.6224L1628.35 56.1098C1625.38 56.7926 1622.11 57.4697 1618.55 58.1407L1618.46 57.6494C1615.36 58.2333 1612.05 58.8127 1608.52 59.3874L1608.6 59.8809C1605.5 60.3856 1602.24 60.8866 1598.81 61.3836L1598.74 60.8888C1595.61 61.3434 1592.34 61.7948 1588.94 62.2428L1589 62.7385C1585.76 63.1657 1582.4 63.5897 1578.92 64.0105L1578.86 63.5141C1575.71 63.8946 1572.46 64.2725 1569.12 64.6476L1569.18 65.1445C1565.93 65.5099 1562.58 65.8727 1559.15 66.2329L1559.1 65.7357C1555.9 66.0715 1552.62 66.405 1549.27 66.7362L1549.32 67.2338C1546.05 67.557 1542.7 67.8779 1539.29 68.1964L1539.24 67.6986C1536.03 67.9984 1532.75 68.2961 1529.41 68.5918L1529.45 69.0898C1526.15 69.3826 1522.78 69.6733 1519.35 69.962L1519.31 69.4637C1516.1 69.7338 1512.84 70.002 1509.53 70.2683L1509.57 70.7667C1506.26 71.0331 1502.89 71.2976 1499.48 71.5602L1499.44 71.0616C1496.21 71.3102 1492.93 71.5571 1489.6 71.8023L1489.64 72.3009C1486.36 72.5427 1483.04 72.7827 1479.68 73.021L1479.64 72.5222C1476.34 72.7563 1472.99 72.9886 1469.6 73.2193L1469.64 73.7181C1466.4 73.9388 1463.12 74.1579 1459.8 74.3755L1459.77 73.8766C1456.45 74.0941 1453.1 74.3101 1449.71 74.5244L1449.74 75.0234C1446.47 75.2303 1443.16 75.4358 1439.82 75.6397L1439.79 75.1406C1436.52 75.3402 1433.22 75.5383 1429.88 75.735L1429.91 76.2341C1426.58 76.4308 1423.21 76.626 1419.81 76.8198L1419.79 76.3206C1416.53 76.5063 1413.24 76.6907 1409.92 76.8737L1409.95 77.373C1406.67 77.5542 1403.35 77.734 1400.02 77.9124L1399.99 77.4132C1396.65 77.5916 1393.28 77.7686 1389.89 77.9443L1389.91 78.4436C1386.65 78.6124 1383.36 78.7799 1380.05 78.9461L1380.03 78.4467C1376.74 78.6116 1373.43 78.7753 1370.09 78.9376L1370.12 79.437C1366.78 79.5993 1363.42 79.7603 1360.04 79.92L1360.01 79.4206C1356.73 79.5753 1353.43 79.7288 1350.11 79.881L1350.13 80.3804C1346.85 80.5309 1343.54 80.68 1340.21 80.828L1340.19 80.3285C1336.87 80.4764 1333.52 80.6231 1330.15 80.7685L1330.17 81.268C1326.86 81.4107 1323.54 81.5522 1320.19 81.6925L1320.17 81.193C1316.89 81.3303 1313.59 81.4664 1310.28 81.6014L1310.3 82.101C1306.98 82.236 1303.65 82.3698 1300.3 82.5023L1300.28 82.0027C1296.94 82.1349 1293.58 82.2659 1290.2 82.3956L1290.22 82.8953C1286.95 83.0207 1283.66 83.1451 1280.36 83.2683L1280.34 82.7686C1277.04 82.8918 1273.72 83.0139 1270.39 83.1348L1270.41 83.6345C1267.07 83.7554 1263.72 83.8752 1260.35 83.9938L1260.34 83.4941C1257.03 83.6105 1253.71 83.7257 1250.38 83.8398L1250.4 84.3395C1247.11 84.4519 1243.81 84.5633 1240.49 84.6735L1240.47 84.1738C1237.16 84.2841 1233.82 84.3932 1230.48 84.5013L1230.49 85.001C1227.15 85.109 1223.78 85.216 1220.41 85.3218L1220.39 84.822C1217.11 84.9248 1213.82 85.0264 1210.52 85.127L1210.53 85.6268C1207.23 85.7272 1203.92 85.8265 1200.59 85.9248L1200.58 85.425C1197.25 85.5233 1193.91 85.6205 1190.56 85.7167L1190.57 86.2164C1187.24 86.3121 1183.89 86.4066 1180.53 86.5001L1180.52 86.0003C1177.23 86.0915 1173.94 86.1818 1170.63 86.271L1170.65 86.7708C1167.34 86.86 1164.02 86.9482 1160.69 87.0354L1160.68 86.5355C1157.34 86.6227 1154 86.7087 1150.65 86.7938L1150.66 87.2936C1147.33 87.3779 1144 87.4612 1140.65 87.5434L1140.63 87.0436C1137.35 87.1243 1134.05 87.2041 1130.73 87.2828L1130.75 87.7827C1127.44 87.8614 1124.11 87.9391 1120.78 88.0158L1120.77 87.516C1117.44 87.5927 1114.09 87.6683 1110.74 87.743L1110.75 88.2429C1107.43 88.3168 1104.09 88.3898 1100.75 88.4618L1100.74 87.9619C1097.44 88.0327 1094.14 88.1026 1090.83 88.1714L1090.84 88.6713C1087.53 88.7402 1084.21 88.808 1080.87 88.8749L1080.86 88.375C1077.53 88.4418 1074.19 88.5077 1070.84 88.5726L1070.85 89.0725C1067.52 89.1369 1064.18 89.2003 1060.83 89.2627L1060.82 88.7628C1057.53 88.8243 1054.23 88.8847 1050.92 88.9442L1050.93 89.4441C1047.61 89.5036 1044.29 89.5621 1040.96 89.6196L1040.96 89.1197C1037.63 89.1772 1034.29 89.2338 1030.94 89.2893L1030.95 89.7892C1027.61 89.8446 1024.27 89.8991 1020.91 89.9525L1020.9 89.4526C1017.61 89.505 1014.31 89.5565 1011 89.6071L1011.01 90.107C1007.7 90.1575 1004.38 90.2071 1001.05 90.2557L1001.05 89.7558C997.72 89.8044 994.386 89.8521 991.045 89.8987L991.052 90.3987C987.71 90.4454 984.361 90.4911 981.004 90.5358L980.998 90.0358C977.697 90.0798 974.39 90.1228 971.074 90.1649L971.081 90.6649C967.773 90.7068 964.459 90.7479 961.137 90.7879L961.131 90.288C957.809 90.328 954.48 90.3672 951.145 90.4053L951.15 90.9053C947.814 90.9434 944.471 90.9806 941.122 91.0169L941.116 90.5169C937.799 90.5528 934.474 90.5877 931.143 90.6217L931.148 91.1217C927.844 91.1554 924.532 91.1882 921.215 91.22L921.21 90.72C917.893 90.7518 914.569 90.7827 911.239 90.8127L911.243 91.3126C907.913 91.3426 904.576 91.3716 901.234 91.3996L901.229 90.8996C897.894 90.9276 894.552 90.9546 891.204 90.9807L891.208 91.4806C887.907 91.5063 884.599 91.5311 881.286 91.555L881.282 91.055C877.969 91.0788 874.65 91.1017 871.326 91.1237L871.329 91.6236C868.004 91.6456 864.674 91.6666 861.337 91.6867L861.334 91.1867C857.998 91.2068 854.657 91.2259 851.309 91.2441L851.312 91.7441C847.997 91.7621 844.676 91.7792 841.35 91.7953L841.347 91.2953C838.038 91.3113 834.724 91.3265 831.404 91.3406L831.406 91.8406C828.086 91.8548 824.762 91.8681 821.432 91.8804L821.43 91.3804C818.1 91.3927 814.765 91.4041 811.425 91.4145L811.427 91.9145C808.091 91.9249 804.751 91.9344 801.406 91.9429L801.405 91.4429C798.099 91.4513 794.789 91.4588 791.474 91.4654L791.475 91.9654C788.16 91.972 784.84 91.9776 781.516 91.9823L781.515 91.4823C778.191 91.487 774.862 91.4908 771.529 91.4936L771.529 91.9936C768.196 91.9965 764.858 91.9983 761.516 91.9993L761.516 91.4993L759.549 91.4997L756.5 91.5C754.827 91.5 753.155 91.4998 751.483 91.4993L751.483 91.9993C748.141 91.9983 744.804 91.9965 741.47 91.9936L741.471 91.4936C738.137 91.4908 734.809 91.487 731.484 91.4823L731.484 91.9823C728.159 91.9776 724.84 91.972 721.525 91.9654L721.526 91.4654C718.211 91.4588 714.9 91.4513 711.594 91.4429L711.593 91.9429C708.248 91.9344 704.908 91.9249 701.573 91.9145L701.574 91.4145C698.235 91.4041 694.9 91.3927 691.57 91.3804L691.568 91.8804C688.238 91.8681 684.913 91.8548 681.594 91.8406L681.596 91.3406C678.276 91.3265 674.962 91.3113 671.652 91.2953L671.65 91.7953C668.324 91.7792 665.003 91.7621 661.688 91.7441L661.69 91.2441C658.343 91.2259 655.001 91.2068 651.665 91.1867L651.662 91.6867C648.326 91.6666 644.996 91.6456 641.671 91.6236L641.674 91.1237C638.349 91.1017 635.03 91.0788 631.717 91.055L631.714 91.555C628.4 91.5311 625.093 91.5063 621.791 91.4806L621.795 90.9807C618.448 90.9546 615.106 90.9276 611.771 90.8996L611.766 91.3996C608.423 91.3716 605.087 91.3426 601.756 91.3126L601.761 90.8127C598.431 90.7827 595.107 90.7518 591.79 90.72L591.785 91.22C588.467 91.1882 585.156 91.1554 581.852 91.1217L581.857 90.6217C578.526 90.5877 575.201 90.5528 571.884 90.5169L571.878 91.0169C568.528 90.9806 565.185 90.9434 561.849 90.9053L561.855 90.4053C558.519 90.3672 555.191 90.328 551.869 90.288L551.863 90.7879C548.541 90.7479 545.226 90.7068 541.919 90.6649L541.925 90.1649C538.61 90.1228 535.303 90.0798 532.002 90.0358L531.996 90.5358C528.639 90.4911 525.289 90.4454 521.948 90.3987L521.955 89.8987C518.614 89.8521 515.28 89.8044 511.954 89.7558L511.947 90.2557C508.621 90.2071 505.303 90.1575 501.993 90.107L502.001 89.6071C498.691 89.5565 495.389 89.505 492.096 89.4526L492.088 89.9525C488.733 89.8991 485.387 89.8446 482.049 89.7892L482.058 89.2893C478.711 89.2338 475.373 89.1772 472.044 89.1197L472.035 89.6196C468.706 89.5621 465.386 89.5036 462.074 89.4441L462.083 88.9442C458.771 88.8847 455.469 88.8243 452.175 88.7628L452.166 89.2627C448.818 89.2003 445.48 89.1369 442.151 89.0725L442.16 88.5726C438.809 88.5077 435.468 88.4418 432.136 88.375L432.126 88.8749C428.795 88.808 425.473 88.7402 422.16 88.6713L422.171 88.1714C418.859 88.1026 415.557 88.0327 412.264 87.9619L412.254 88.4618C408.908 88.3898 405.573 88.3168 402.249 88.2429L402.26 87.743C398.906 87.6683 395.563 87.5927 392.23 87.516L392.219 88.0158C388.886 87.9391 385.564 87.8614 382.253 87.7827L382.265 87.2828C378.954 87.2041 375.655 87.1243 372.366 87.0436L372.354 87.5434C369.004 87.4612 365.667 87.3779 362.341 87.2936L362.353 86.7938C358.999 86.7087 355.655 86.6227 352.324 86.5355L352.311 87.0353C348.98 86.9482 345.661 86.86 342.354 86.7708L342.367 86.271C339.061 86.1818 335.766 86.0915 332.484 86.0003L332.47 86.5001C329.109 86.4066 325.761 86.3121 322.426 86.2164L322.44 85.7167C319.087 85.6205 315.748 85.5233 312.421 85.425L312.407 85.9248C309.08 85.8265 305.767 85.7272 302.468 85.6268L302.483 85.127C299.178 85.0264 295.886 84.9247 292.608 84.822L292.592 85.3218C289.216 85.216 285.854 85.109 282.507 85.001L282.523 84.5013C279.176 84.3932 275.844 84.2841 272.527 84.1738L272.511 84.6735C269.193 84.5633 265.892 84.4519 262.605 84.3395L262.622 83.8398C259.287 83.7257 255.968 83.6105 252.665 83.4941L252.647 83.9938C249.279 83.8752 245.927 83.7554 242.592 83.6345L242.61 83.1348C239.275 83.0139 235.957 82.8918 232.656 82.7686L232.637 83.2683C229.336 83.1451 226.051 83.0207 222.784 82.8952L222.803 82.3956C219.425 82.2659 216.064 82.1349 212.722 82.0027L212.702 82.5023C209.349 82.3698 206.015 82.236 202.7 82.101L202.72 81.6014C199.405 81.4664 196.11 81.3303 192.833 81.193L192.812 81.6925C189.465 81.5522 186.138 81.4107 182.831 81.268L182.852 80.7685C179.483 80.6231 176.134 80.4764 172.807 80.3284L172.785 80.828C169.458 80.68 166.152 80.5308 162.868 80.3804L162.891 79.881C159.567 79.7288 156.266 79.5753 152.987 79.4206L152.963 79.92C149.579 79.7603 146.219 79.5993 142.883 79.437L142.907 78.9376C139.571 78.7753 136.26 78.6116 132.973 78.4467L132.948 78.9461C129.635 78.7799 126.348 78.6124 123.086 78.4436L123.112 77.9443C119.717 77.7686 116.35 77.5916 113.011 77.4131L112.985 77.9124C109.645 77.734 106.333 77.5542 103.05 77.373L103.077 76.8737C99.7609 76.6907 96.4733 76.5063 93.2147 76.3206L93.1862 76.8197C89.7882 76.626 86.4218 76.4308 83.0873 76.2341L83.1167 75.735C79.7826 75.5383 76.4804 75.3402 73.2106 75.1406L73.1802 75.6397C69.8396 75.4357 66.5329 75.2303 63.2604 75.0234L63.292 74.5244C59.902 74.31 56.5488 74.0941 53.2329 73.8766L53.2002 74.3755C49.8839 74.1579 46.6048 73.9388 43.3635 73.7181L43.3975 73.2193C40.0097 72.9886 36.6631 72.7562 33.3584 72.5222L33.3231 73.021C29.958 72.7827 26.6363 72.5427 23.3585 72.3009L23.3952 71.8023C20.0708 71.5571 16.7916 71.3102 13.5582 71.0616L13.5199 71.5601C10.1048 71.2975 6.74089 71.033 3.4288 70.7667L3.46887 70.2683C0.157394 70.002 -3.10222 69.7337 -6.3092 69.4637L-6.35115 69.962C-9.77914 69.6733 -13.1471 69.3826 -16.454 69.0898L-16.41 68.5917C-19.7493 68.2961 -23.0264 67.9984 -26.2403 67.6986L-26.2868 68.1964C-29.7024 67.8778 -33.0468 67.5569 -36.3188 67.2338L-36.2697 66.7362C-39.6231 66.405 -42.9004 66.0715 -46.1004 65.7356L-46.1526 66.2329C-49.5846 65.8727 -52.9278 65.5099 -56.1807 65.1445L-56.1249 64.6476C-59.4648 64.2724 -62.7093 63.8946 -65.857 63.5141L-65.917 64.0105C-69.3983 63.5897 -72.7614 63.1656 -76.004 62.7385L-75.9387 62.2428C-79.3398 61.7948 -82.608 61.3434 -85.7409 60.8887L-85.8127 61.3836C-89.2377 60.8865 -92.5015 60.3855 -95.6007 59.8808L-95.5204 59.3873C-99.0491 58.8126 -102.364 58.2332 -105.459 57.6493L-105.552 58.1406C-109.109 57.4696 -112.378 56.7925 -115.353 56.1097L-115.241 55.6223C-118.881 54.7868 -122.073 53.9437 -124.805 53.0942L-124.954 53.5717C-129.062 52.2947 -132.148 50.9998 -134.168 49.6896L-133.896 49.2701C-135.745 48.0705 -136.5 46.9703 -136.5 46C-136.5 45.0296 -135.745 43.9294 -133.895 42.7297L-134.167 42.3102C-132.147 41 -129.061 39.7052 -124.953 38.4282L-124.805 38.9056C-122.072 38.0562 -118.88 37.2131 -115.24 36.3776L-115.352 35.8902C-112.378 35.2074 -109.108 34.5303 -105.551 33.8593L-105.459 34.3506C-102.363 33.7667 -99.0487 33.1873 -95.52 32.6126L-95.6004 32.1191C-92.5011 31.6144 -89.2374 31.1134 -85.8124 30.6164L-85.7405 31.1112C-82.6077 30.6566 -79.3395 30.2052 -75.9384 29.7572L-76.0037 29.2615C-72.7611 28.8343 -69.398 28.4103 -65.9166 27.9895L-65.8566 28.4859C-62.709 28.1054 -59.4644 27.7275 -56.1246 27.3524L-56.1804 26.8555C-52.9274 26.4901 -49.5842 26.1273 -46.1522 25.7671L-46.1 26.2643C-42.9 25.9285 -39.6227 25.595 -36.2693 25.2638L-36.3185 24.7662C-33.0464 24.443 -29.7021 24.1222 -26.2865 23.8036L-26.24 24.3014C-23.0261 24.0016 -19.749 23.7039 -16.4096 23.4082L-16.4537 22.9102C-13.1468 22.6174 -9.77885 22.3267 -6.35086 22.038L-6.3089 22.5363C-3.10191 22.2662 0.157684 21.998 3.46916 21.7317L3.42908 21.2333C6.74115 20.9669 10.1051 20.7024 13.5202 20.4398L13.5585 20.9384C16.7918 20.6898 20.071 20.4429 23.3954 20.1977L23.3587 19.699C26.6365 19.4573 29.9582 19.2173 33.3233 18.979L33.3586 19.4778C36.6633 19.2437 40.0098 19.0114 43.3976 18.7807L43.3637 18.2819C46.605 18.0612 49.884 17.8421 53.2003 17.6245L53.2331 18.1234C56.549 17.9059 59.9021 17.6899 63.2921 17.4756L63.2605 16.9766C66.533 16.7697 69.8398 16.5642 73.1803 16.3603L73.2108 16.8594C76.4805 16.6598 79.7827 16.4617 83.1168 16.265L83.0874 15.7659C86.4219 15.5692 89.7883 15.374 93.1864 15.1802L93.2148 15.6794C96.4734 15.4937 99.761 15.3093 103.077 15.1263L103.05 14.627C106.333 14.4458 109.645 14.266 112.985 14.0876L113.011 14.5868C116.351 14.4084 119.717 14.2314 123.112 14.0557L123.086 13.5564C126.348 13.3876 129.636 13.2201 132.948 13.0539L132.973 13.5533C136.26 13.3884 139.571 13.2247 142.907 13.0624L142.883 12.563C146.219 12.4007 149.579 12.2397 152.963 12.08L152.987 12.5794C156.266 12.4247 159.567 12.2712 162.891 12.119L162.868 11.6196C166.152 11.4692 169.458 11.32 172.785 11.172L172.807 11.6715C176.134 11.5236 179.483 11.3769 182.852 11.2315L182.831 10.732C186.138 10.5893 189.465 10.4478 192.812 10.3075L192.833 10.807C196.11 10.6697 199.406 10.5336 202.72 10.3986L202.7 9.89901C206.015 9.76404 209.35 9.63025 212.702 9.49765L212.722 9.99726C216.064 9.86511 219.425 9.73414 222.804 9.60438L222.784 9.10475C226.051 8.97928 229.336 8.85493 232.637 8.73172L232.656 9.23138C235.957 9.10817 239.275 8.9861 242.61 8.86518L242.592 8.36551C245.927 8.24458 249.279 8.12479 252.647 8.00616L252.665 8.50585C255.968 8.38953 259.287 8.27431 262.622 8.16022L262.605 7.66051C265.892 7.54806 269.194 7.43671 272.511 7.32646L272.527 7.82618C275.844 7.71593 279.176 7.60678 282.523 7.49874L282.507 6.999C285.854 6.89096 289.216 6.78403 292.592 6.67821L292.608 7.17797C295.886 7.07525 299.178 6.97359 302.483 6.87299L302.468 6.37322C305.767 6.27281 309.08 6.17346 312.407 6.07518L312.421 6.57496C315.748 6.47668 319.087 6.37947 322.44 6.28335L322.426 5.78355C325.761 5.68794 329.109 5.5934 332.47 5.49994L332.484 5.99974C335.766 5.90847 339.061 5.81822 342.368 5.72901L342.354 5.22919C345.661 5.13997 348.98 5.05179 352.311 4.96465L352.324 5.46448C355.655 5.37734 358.999 5.29125 362.354 5.20621L362.341 4.70637C365.667 4.62206 369.004 4.53879 372.354 4.45656L372.366 4.95641C375.655 4.87566 378.954 4.79592 382.265 4.71719L382.253 4.21733C385.564 4.1386 388.886 4.06088 392.219 3.98418L392.23 4.48405C395.563 4.40735 398.906 4.33167 402.26 4.25702L402.249 3.75715C405.573 3.68315 408.908 3.61016 412.254 3.5382L412.264 4.03808C415.557 3.96725 418.859 3.89741 422.171 3.82857L422.161 3.32867C425.473 3.25982 428.795 3.19196 432.127 3.12511L432.137 3.62501C435.468 3.55815 438.81 3.49229 442.16 3.42744L442.151 2.92754C445.48 2.86311 448.818 2.79968 452.166 2.73725L452.175 3.23716C455.469 3.17574 458.771 3.11529 462.083 3.05581L462.074 2.55589C465.386 2.49641 468.706 2.4379 472.035 2.38038L472.044 2.8803C475.373 2.82278 478.711 2.76624 482.058 2.71069L482.049 2.21076C485.387 2.15536 488.733 2.10094 492.088 2.04751L492.096 2.54745C495.389 2.49499 498.691 2.44348 502.001 2.39294L501.993 1.893C505.303 1.84246 508.621 1.79287 511.947 1.74425L511.954 2.2442C515.28 2.19559 518.614 2.14794 521.955 2.10126L521.948 1.60131C525.29 1.55463 528.639 1.50893 531.996 1.4642L532.002 1.96416C535.303 1.92019 538.61 1.87717 541.925 1.8351L541.919 1.33514C545.227 1.29316 548.541 1.25214 551.863 1.21206L551.869 1.71203C555.191 1.67196 558.52 1.63284 561.855 1.59468L561.85 1.09472C565.186 1.05656 568.529 1.01936 571.878 0.983131L571.884 1.4831C575.201 1.44722 578.526 1.41228 581.857 1.3783L581.852 0.878328C585.156 0.844617 588.467 0.811844 591.785 0.780015L591.79 1.27999C595.107 1.24816 598.431 1.21728 601.761 1.18734L601.757 0.687364C605.087 0.657428 608.424 0.628442 611.767 0.60041L611.771 1.10039C615.106 1.07242 618.448 1.04541 621.795 1.01934L621.792 0.519358C625.093 0.493656 628.401 0.468883 631.714 0.445046L631.718 0.945033C635.031 0.921197 638.35 0.898296 641.674 0.876336L641.671 0.376347C644.996 0.354386 648.327 0.333366 651.663 0.313293L651.666 0.813284C655.002 0.79321 658.343 0.774083 661.691 0.755908L661.688 0.255915C665.003 0.237912 668.324 0.220843 671.65 0.204712L671.653 0.704706C674.962 0.688658 678.276 0.673538 681.596 0.659353L681.594 0.159357C684.914 0.145171 688.239 0.13192 691.568 0.119608L691.57 0.619605C694.9 0.607293 698.235 0.595921 701.575 0.585494L701.573 0.085496C704.908 0.075083 708.249 0.0656119 711.594 0.0570878L711.595 0.557086C714.901 0.548662 718.211 0.541163 721.526 0.534594L721.525 0.0345949C724.84 0.0280255 728.16 0.022386 731.484 0.0176812L731.485 0.517681C734.809 0.512976 738.138 0.509206 741.471 0.506376L741.471 0.00637633C744.804 0.00354609 748.142 0.00165558 751.484 0.000709706L751.484 0.50071C753.155 0.500237 754.827 0.5 756.5 0.5C758.173 0.5 759.845 0.500237 761.517 0.50071L761.517 0.000709827C764.859 0.00165577 768.196 0.00354633 771.53 0.00637659L771.529 0.506376C774.863 0.509207 778.191 0.512977 781.516 0.517681L781.516 0.0176818C784.841 0.0223866 788.16 0.0280262 791.475 0.0345957L791.474 0.534595C794.789 0.541164 798.1 0.548663 801.406 0.557087L801.407 0.0570887C804.752 0.0656129 808.092 0.075084 811.427 0.0854971L811.426 0.585495C814.765 0.595922 818.1 0.607294 821.43 0.619606L821.432 0.119609C824.762 0.131921 828.087 0.145173 831.406 0.159358L831.404 0.659354C834.724 0.673539 838.038 0.688659 841.348 0.704708L841.35 0.204714C844.676 0.220844 847.997 0.237914 851.312 0.255917L851.31 0.755909C854.657 0.774085 857.999 0.793212 861.335 0.813285L861.338 0.313294C864.674 0.333368 868.004 0.354388 871.329 0.376349L871.326 0.876338C874.651 0.898298 877.97 0.921199 881.283 0.945035L881.286 0.445048C884.6 0.468885 887.907 0.493657 891.209 0.51936L891.205 1.01934C894.552 1.04541 897.894 1.07243 901.229 1.10039L901.234 0.600412C904.577 0.628444 907.913 0.657431 911.244 0.687367L911.239 1.18735C914.569 1.21728 917.893 1.24817 921.21 1.27999L921.215 0.780017C924.533 0.811846 927.844 0.844619 931.148 0.878331L931.143 1.3783C934.474 1.41229 937.799 1.44722 941.116 1.4831L941.122 0.983133C944.472 1.01936 947.815 1.05656 951.151 1.09472L951.145 1.59469C954.481 1.63284 957.809 1.67196 961.131 1.71203L961.137 1.21207C964.459 1.25214 967.774 1.29316 971.081 1.33514L971.075 1.8351C974.39 1.87717 977.697 1.92019 980.998 1.96416L981.004 1.46421C984.361 1.50893 987.711 1.55463 991.052 1.60131L991.045 2.10126C994.386 2.14794 997.72 2.19559 1001.05 2.2442L1001.05 1.74426C1004.38 1.79287 1007.7 1.84246 1011.01 1.893L1011 2.39294C1014.31 2.44349 1017.61 2.49499 1020.9 2.54745L1020.91 2.04751C1024.27 2.10094 1027.61 2.15536 1030.95 2.21076L1030.94 2.71069C1034.29 2.76624 1037.63 2.82278 1040.96 2.8803L1040.96 2.38038C1044.29 2.4379 1047.61 2.49641 1050.93 2.55589L1050.92 3.05581C1054.23 3.11529 1057.53 3.17574 1060.82 3.23716L1060.83 2.73725C1064.18 2.79968 1067.52 2.86311 1070.85 2.92754L1070.84 3.42744C1074.19 3.49229 1077.53 3.55815 1080.86 3.62501L1080.87 3.12511C1084.21 3.19197 1087.53 3.25982 1090.84 3.32868L1090.83 3.82857C1094.14 3.89742 1097.44 3.96726 1100.74 4.03808L1100.75 3.5382C1104.09 3.61017 1107.43 3.68315 1110.75 3.75715L1110.74 4.25702C1114.09 4.33167 1117.44 4.40735 1120.77 4.48405L1120.78 3.98418C1124.11 4.06088 1127.44 4.1386 1130.75 4.21733L1130.73 4.71719C1134.05 4.79592 1137.35 4.87567 1140.63 4.95641L1140.65 4.45656C1144 4.53879 1147.33 4.62206 1150.66 4.70637L1150.65 5.20621C1154 5.29125 1157.34 5.37734 1160.68 5.46448L1160.69 4.96465C1164.02 5.05179 1167.34 5.13997 1170.65 5.22919L1170.63 5.72901C1173.94 5.81822 1177.23 5.90847 1180.52 5.99975L1180.53 5.49994C1183.89 5.5934 1187.24 5.68795 1190.57 5.78355L1190.56 6.28335C1193.91 6.37948 1197.25 6.47668 1200.58 6.57496L1200.59 6.07518C1203.92 6.17346 1207.23 6.27281 1210.53 6.37322L1210.52 6.87299C1213.82 6.97359 1217.11 7.07525 1220.39 7.17797L1220.41 6.67822C1223.78 6.78403 1227.15 6.89096 1230.49 6.99901L1230.48 7.49875C1233.82 7.60678 1237.16 7.71593 1240.47 7.82618L1240.49 7.32646C1243.81 7.43671 1247.11 7.54807 1250.4 7.66051L1250.38 8.16022C1253.71 8.27431 1257.03 8.38953 1260.34 8.50585L1260.35 8.00617C1263.72 8.12479 1267.07 8.24458 1270.41 8.36551L1270.39 8.86518C1273.73 8.9861 1277.04 9.10817 1280.34 9.23138L1280.36 8.73173C1283.66 8.85494 1286.95 8.97928 1290.22 9.10475L1290.2 9.60438C1293.58 9.73414 1296.94 9.86511 1300.28 9.99726L1300.3 9.49765C1303.65 9.63025 1306.98 9.76404 1310.3 9.89901L1310.28 10.3986C1313.59 10.5336 1316.89 10.6697 1320.17 10.807L1320.19 10.3075C1323.54 10.4478 1326.86 10.5893 1330.17 10.732L1330.15 11.2315C1333.52 11.3769 1336.87 11.5236 1340.19 11.6716L1340.21 11.172C1343.54 11.32 1346.85 11.4692 1350.13 11.6196L1350.11 12.119C1353.43 12.2713 1356.73 12.4247 1360.01 12.5794L1360.04 12.08C1363.42 12.2397 1366.78 12.4007 1370.12 12.563L1370.09 13.0624C1373.43 13.2247 1376.74 13.3884 1380.03 13.5533L1380.05 13.0539C1383.36 13.2201 1386.65 13.3876 1389.91 13.5564L1389.89 14.0557C1393.28 14.2314 1396.65 14.4084 1399.99 14.5869L1400.02 14.0876C1403.35 14.266 1406.67 14.4458 1409.95 14.627L1409.92 15.1263C1413.24 15.3093 1416.53 15.4937 1419.79 15.6794L1419.81 15.1803C1423.21 15.374 1426.58 15.5692 1429.91 15.7659L1429.88 16.265C1433.22 16.4617 1436.52 16.6598 1439.79 16.8594L1439.82 16.3603C1443.16 16.5642 1446.47 16.7697 1449.74 16.9766L1449.71 17.4756C1453.1 17.69 1456.45 17.9059 1459.77 18.1234L1459.8 17.6245C1463.12 17.8421 1466.4 18.0612 1469.64 18.2819L1469.6 18.7807C1472.99 19.0114 1476.34 19.2438 1479.64 19.4778L1479.68 18.979C1483.04 19.2173 1486.36 19.4573 1489.64 19.6991L1489.6 20.1977C1492.93 20.4429 1496.21 20.6898 1499.44 20.9384L1499.48 20.4399C1502.9 20.7025 1506.26 20.967 1509.57 21.2333L1509.53 21.7317C1512.84 21.9981 1516.1 22.2662 1519.31 22.5363L1519.35 22.038C1522.78 22.3267 1526.15 22.6174 1529.45 22.9102L1529.41 23.4083C1532.75 23.7039 1536.03 24.0017 1539.24 24.3014L1539.29 23.8036C1542.7 24.1222 1546.05 24.4431 1549.32 24.7662L1549.27 25.2638C1552.62 25.595 1555.9 25.9285 1559.1 26.2644L1559.15 25.7671C1562.58 26.1273 1565.93 26.4901 1569.18 26.8555L1569.12 27.3524C1572.46 27.7276 1575.71 28.1054 1578.86 28.4859L1578.92 27.9895C1582.4 28.4103 1585.76 28.8344 1589 29.2615L1588.94 29.7572C1592.34 30.2052 1595.61 30.6566 1598.74 31.1113L1598.81 30.6164C1602.24 31.1135 1605.5 31.6144 1608.6 32.1192L1608.52 32.6127C1612.05 33.1874 1615.36 33.7668 1618.46 34.3507L1618.55 33.8594C1622.11 34.5304 1625.38 35.2075 1628.35 35.8903L1628.24 36.3777C1631.88 37.2132 1635.07 38.0563 1637.81 38.9058L1637.95 38.4283Z" stroke="url(#paint2_linear_243_29)" stroke-dasharray="10 10"/>
<defs>
<linearGradient id="paint0_linear_243_29" x1="822.5" y1="91" x2="818" y2="427" gradientUnits="userSpaceOnUse">
<stop stop-color="#319FDD"/>
<stop offset="1" stop-color="#004679" stop-opacity="0"/>
</linearGradient>
<linearGradient id="paint1_linear_243_29" x1="821.5" y1="46" x2="819.9" y2="246.331" gradientUnits="userSpaceOnUse">
<stop stop-color="#319FDD"/>
<stop offset="1" stop-color="#004679" stop-opacity="0"/>
</linearGradient>
<linearGradient id="paint2_linear_243_29" x1="822.5" y1="9.47154e-06" x2="822.109" y2="99.0931" gradientUnits="userSpaceOnUse">
<stop stop-color="#319FDD"/>
<stop offset="1" stop-color="#004679" stop-opacity="0"/>
</linearGradient>
</defs>
</svg>
